<svg width="108" height="44" viewBox="0 0 108 44" fill="none" xmlns="http://www.w3.org/2000/svg">
<path fill-rule="evenodd" clip-rule="evenodd" d="M23.5999 8.94891C24.2705 8.11 24.566 7.37589 24.4859 6.74659C24.4061 6.11753 23.9669 5.62521 23.1687 5.27034C22.562 5.01224 21.9235 4.87501 21.2531 4.85893C20.5824 4.84284 19.912 4.90719 19.2416 5.05245C18.571 5.19746 17.9086 5.39927 17.2539 5.65762C16.5994 5.91573 16.0008 6.19017 15.458 6.48044C13.6701 7.38394 12.0258 8.54578 10.5251 9.96549C9.02418 11.3854 7.73114 12.9507 6.64549 14.6609C6.00693 15.6936 5.4002 16.9439 4.82579 18.4123C4.25113 19.8805 3.86794 21.3729 3.67647 22.8896C3.485 24.4063 3.55686 25.8501 3.89182 27.2218C4.22702 28.5933 4.96951 29.6823 6.11883 30.4892C6.8852 31.0379 7.69112 31.4249 8.53731 31.6511C9.3835 31.8768 10.2456 31.9899 11.1234 31.9899C12.0014 31.9899 12.8874 31.8848 13.7813 31.6752C14.6755 31.4656 15.5376 31.2155 16.3674 30.925C17.4849 30.5053 18.5785 29.9409 19.6482 29.2309C20.7177 28.5209 21.6358 27.7142 22.4019 26.8107C22.6257 26.5204 22.8331 26.2055 23.0248 25.867C23.2163 25.5279 23.3998 25.1972 23.5753 24.8745C23.7511 24.5518 23.9505 24.2455 24.1741 23.9549C24.3976 23.6646 24.6689 23.4385 24.9882 23.2771C25.5949 22.9544 26.0739 22.8898 26.4252 23.0834C26.7766 23.2771 27.0078 23.5918 27.1197 24.0273C27.2314 24.4629 27.2555 24.9471 27.1916 25.4794C27.1277 26.012 26.9999 26.4556 26.8084 26.8107C26.2977 27.7466 25.667 28.6257 24.9168 29.4488C24.1664 30.2716 23.3761 31.0057 22.5461 31.6513C20.8219 32.9097 18.9142 33.9102 16.8229 34.6523C14.7317 35.3945 12.6163 35.685 10.4771 35.5237C8.68923 35.3945 6.98117 34.9107 5.3527 34.0715C3.72446 33.2324 2.44735 32.0062 1.52134 30.393C0.914605 29.3281 0.499586 28.1985 0.276041 27.0047C0.0527374 25.8104 -0.0352858 24.6086 0.0127027 23.3985C0.0604501 22.1884 0.236009 20.9783 0.539615 19.7682C0.842738 18.5581 1.23412 17.4206 1.71304 16.3555C2.63905 14.1934 3.83636 12.201 5.30495 10.3774C6.77355 8.55432 8.43409 6.9328 10.2859 5.51285C11.1159 4.89963 12.0019 4.2947 12.9438 3.69782C13.8857 3.10069 14.8674 2.60056 15.8892 2.19719C16.9109 1.79382 17.9563 1.49526 19.0258 1.30174C20.0956 1.10797 21.1732 1.09189 22.2589 1.25348C23.3125 1.41458 24.2621 1.75361 25.1083 2.26982C25.9545 2.78628 26.6329 3.42362 27.1438 4.18185C27.6546 4.94033 27.9659 5.79533 28.0776 6.74732C28.1895 7.69932 28.0535 8.70762 27.6705 9.77271C27.2873 10.8054 26.7047 11.7735 25.9222 12.677C25.1399 13.5805 24.2619 14.4033 23.2881 15.1454C22.3144 15.8878 21.2844 16.5249 20.1992 17.0575C19.1136 17.59 18.0759 17.9853 17.086 18.2437C16.7031 18.3404 16.3196 18.3485 15.9367 18.2678C15.5535 18.1871 15.2104 18.0258 14.907 17.7838C14.6039 17.5417 14.3644 17.2434 14.1886 16.8883C14.0131 16.5334 13.9253 16.1462 13.9253 15.7267C13.9253 15.2103 14.0608 14.7667 14.3323 14.3955C14.6039 14.0245 14.9391 13.7018 15.3382 13.4274C15.7373 13.1532 16.1684 12.9353 16.6312 12.774C17.0942 12.6126 17.5331 12.4676 17.9484 12.3384C19.1616 11.9833 20.2311 11.5478 21.1571 11.0316C22.0829 10.5151 22.897 9.82145 23.5997 8.94989L23.5999 8.94891ZM26.805 18.4845C27.2521 17.7747 27.699 17.0002 28.146 16.161C28.5931 15.3221 29.0082 14.4669 29.3913 13.5956C29.7745 12.7245 30.1018 11.8692 30.3733 11.0303C30.6446 10.1912 30.8284 9.44904 30.9238 8.80365C31.0198 8.15826 31.259 7.66618 31.6422 7.32739C32.0254 6.98837 32.4086 6.83531 32.7915 6.86749C33.1747 6.8999 33.4783 7.12583 33.7016 7.54529C33.9252 7.96474 33.9252 8.59405 33.7016 9.43295C34.4359 9.46513 35.1705 9.60234 35.9048 9.84436C36.6391 10.0864 37.2458 10.5465 37.7247 11.2239C38.2673 12.063 38.459 13.0716 38.2994 14.2492C38.1397 15.4269 37.5971 16.8064 36.6711 18.3877C35.7133 20.0012 34.971 21.2839 34.4439 22.2359C33.917 23.1879 33.542 24.067 33.3187 24.8738C33.159 25.4224 33.071 25.8338 33.0551 26.1083C33.0392 26.3825 33.0631 26.5518 33.127 26.6164C33.2225 26.6164 33.4463 26.5438 33.7974 26.3988C34.1487 26.2535 34.6356 25.9067 35.2582 25.3581C35.8806 24.8097 36.6391 23.9947 37.533 22.9135C38.4269 21.8326 39.4487 20.3561 40.5982 18.4845L40.6151 18.4586C41.0813 17.618 41.5387 16.8037 41.9873 16.016C42.4343 15.306 42.8812 14.5478 43.3285 13.7408C43.7756 12.9341 44.0148 12.3694 44.0467 12.0467C44.0467 11.5305 44.2225 11.0947 44.5656 10.7398C44.917 10.3849 45.324 10.2073 45.795 10.2073C46.2978 10.2073 46.729 10.3767 47.0721 10.7157C47.4155 11.0545 47.607 11.482 47.6388 11.9984C47.6388 12.7084 47.4155 13.5149 46.9764 14.4186C46.5372 15.3221 45.9066 16.4837 45.0846 17.9037C44.7093 18.5815 44.2625 19.3638 43.7594 20.2513C43.2487 21.1387 42.8096 22.0019 42.4425 22.8409C42.0753 23.68 41.836 24.4463 41.7242 25.1402C41.6123 25.8338 41.748 26.2937 42.1312 26.5197C42.1949 26.5516 42.3147 26.5679 42.4903 26.5679C42.6658 26.5679 42.8974 26.5033 43.1848 26.3742C43.4722 26.2452 43.8313 26.0354 44.2543 25.7451C44.6855 25.4546 45.1803 25.0512 45.7472 24.535C46.3139 24.0185 46.8645 23.4621 47.4075 22.865C47.9424 22.2679 48.445 21.687 48.9082 21.1223C49.371 20.5576 49.7783 20.0494 50.1294 19.5976C50.4807 19.1457 50.752 18.7748 50.9435 18.484C51.0552 18.3336 51.1678 18.2054 51.2816 18.0989C51.9759 16.9848 52.5737 15.9351 53.075 14.9504C53.6338 13.8532 54.1448 12.8851 54.6078 12.0459C55.0708 11.207 55.5256 10.5212 55.9724 9.98889C56.4195 9.45635 56.9143 9.12561 57.4572 8.99668C58.1278 8.83533 58.6704 8.88383 59.0856 9.1417C59.5007 9.40005 59.756 9.75492 59.852 10.2065C59.9159 10.3357 60.2272 10.5456 60.786 10.8358C61.3447 11.1261 61.9114 11.3199 62.4861 11.4166C62.7094 11.4491 62.9889 11.4649 63.3243 11.4649C63.6595 11.4649 64.0265 11.4086 64.4256 11.2955C64.8247 11.1824 65.2477 10.9891 65.6948 10.7147C66.1419 10.4403 66.5887 10.045 67.0358 9.52874C67.4509 9.0447 67.9056 8.79463 68.4007 8.7783C68.8956 8.76222 69.3347 8.89919 69.7177 9.18971C70.1008 9.48023 70.3562 9.8836 70.484 10.3998C70.6118 10.9163 70.5161 11.4647 70.1968 12.0455C69.3668 13.4654 68.3291 14.7964 67.0838 16.0389C65.8385 17.2814 64.5296 18.4189 63.1567 19.4516C61.7839 20.4843 60.4505 21.4119 59.1575 22.235C57.8645 23.0578 56.7709 23.7436 55.8769 24.292C56.4516 24.2274 57.0262 24.2596 57.6011 24.3888C58.1758 24.5179 58.7345 24.7602 59.2771 25.1148C59.7242 25.4375 60.1872 25.6956 60.6661 25.8894C61.1451 26.0829 61.576 26.1797 61.9592 26.1797C62.9809 26.1797 64.226 25.5021 65.6948 24.1467C67.1634 22.7914 68.6641 20.9037 70.1966 18.4833C70.2274 18.4343 70.2593 18.3875 70.2921 18.3431C70.5443 17.8493 70.8158 17.3475 71.1071 16.8376C71.9374 15.3855 72.8314 13.8688 73.7892 12.2875C74.9067 10.3837 75.9923 8.49582 77.0459 6.624C78.0995 4.75242 78.8338 3.01002 79.2488 1.39654C79.3766 0.912502 79.6559 0.533265 80.087 0.259072C80.5182 -0.0153643 80.973 -0.071664 81.4519 0.0896831C81.9308 0.218615 82.2981 0.493051 82.5535 0.912505C82.8091 1.3322 82.8728 1.78383 82.745 2.26787C82.266 4.17186 81.4678 6.13216 80.3504 8.14924C79.2329 10.1658 78.0674 12.1749 76.8542 14.1756C76.152 15.3372 75.4413 16.5313 74.7229 17.7577C74.0045 18.9839 73.3978 20.1535 72.903 21.2669C72.4081 22.38 72.0889 23.3563 71.9451 24.1952C71.8016 25.0342 71.9531 25.6471 72.3999 26.0347C72.5596 26.1314 72.8232 26.2445 73.1904 26.3734C73.5574 26.5026 74.1403 26.3573 74.9383 25.9379C75.8006 25.486 76.6786 24.8087 77.5726 23.905C78.4665 23.0012 79.2806 21.9364 80.0149 20.7102C80.7495 19.484 81.308 18.298 81.6914 17.1525C82.0743 16.007 82.234 15.0145 82.1703 14.1756C82.1703 14.0786 82.1624 13.9899 82.1462 13.9092C82.1303 13.8286 82.1226 13.7559 82.1226 13.6916C81.7394 13.4013 81.388 13.0945 81.0687 12.7718C80.7497 12.4491 80.462 12.1103 80.2066 11.7552C79.9833 11.4325 79.8714 11.0776 79.8714 10.6903C79.8714 10.3031 79.9993 9.94819 80.2544 9.6255C80.51 9.3028 80.8211 9.08515 81.1884 8.97206C81.5556 8.85897 81.9309 8.86702 82.3138 8.99644C83.5591 9.48023 84.4689 10.255 85.0436 11.3199C85.6501 11.7069 86.3366 12.0377 87.103 12.3121C87.8694 12.5865 88.6435 12.772 89.426 12.8688C90.208 12.9655 90.9744 12.9494 91.7248 12.8203C91.9508 12.7813 92.1683 12.7308 92.3784 12.6687L92.3957 12.6511C93.4336 11.6026 94.5108 10.7474 95.6286 10.0856C96.7461 9.42418 97.8556 9.02081 98.9574 8.87555C100.059 8.73029 101.088 8.93185 102.046 9.48048C102.844 9.93235 103.435 10.5536 103.818 11.344C104.201 12.1347 104.329 13.014 104.201 13.9821C104.137 14.7567 103.93 15.5149 103.578 16.2571C103.227 16.9992 102.789 17.6931 102.261 18.3385C101.734 18.9839 101.12 19.5486 100.418 20.0326C99.7153 20.5167 98.9651 20.8879 98.1667 21.1462C97.8153 21.243 97.3923 21.3317 96.8975 21.4124C96.4026 21.493 95.868 21.5094 95.2934 21.4609C94.7185 21.4124 94.1199 21.2674 93.4973 21.0251C92.8749 20.7831 92.2281 20.4199 91.5577 19.9359C91.2385 20.5813 90.9751 21.2186 90.7675 21.8479C90.5599 22.477 90.4243 23.0661 90.3604 23.6144C90.2968 24.1631 90.3127 24.6712 90.4082 25.1394C90.5042 25.6072 90.6959 25.9866 90.9831 26.2769C91.6535 26.9545 92.5954 27.2209 93.8089 27.0754C95.0221 26.9304 96.331 26.4785 97.736 25.72C99.1409 24.9615 100.562 23.9535 101.998 22.6949C103.435 21.4363 104.728 20.0324 105.878 18.4835C106.165 18.0641 106.477 17.7979 106.812 17.6851C107.147 17.5722 107.418 17.5722 107.626 17.6851C107.833 17.7981 107.953 18.0078 107.985 18.3141C108.017 18.6207 107.873 18.9839 107.554 19.4033C105.191 22.6624 102.836 25.236 100.49 27.1241C98.143 29.0118 95.9479 30.0525 93.9044 30.246C93.7129 30.2784 93.5214 30.2943 93.3297 30.2943C93.138 30.2943 92.9465 30.2943 92.755 30.2943C90.903 30.2943 89.4983 29.8587 88.5403 28.9874C87.6784 28.1807 87.1274 27.2448 86.8879 26.1799C86.6484 25.1151 86.6246 23.9937 86.816 22.816C87.0075 21.6381 87.3589 20.4682 87.8696 19.3068C88.3806 18.145 88.9714 17.064 89.6416 16.0635C89.7892 15.8371 89.9406 15.6136 90.0959 15.3933C89.9842 15.4084 89.8726 15.4221 89.7607 15.4345C88.8827 15.5312 88.0606 15.5554 87.2942 15.5069C86.5279 15.4586 85.9532 15.3538 85.57 15.1925C85.4743 16.5154 85.155 17.8788 84.6122 19.2824C84.0696 20.6863 83.383 22.0334 82.5528 23.3242C81.7227 24.6149 80.797 25.7765 79.775 26.8095C78.7532 27.8421 77.6997 28.6328 76.6143 29.1812C75.5607 29.7296 74.4909 30.004 73.4053 30.004C72.1602 30.004 71.0746 29.6006 70.1488 28.7939C68.9609 27.8219 68.3525 26.5184 68.3224 24.8826C67.8041 25.6137 67.2951 26.2718 66.7956 26.8575C65.9974 27.7934 65.2072 28.5194 64.4249 29.0357C63.6429 29.5521 62.8206 29.8102 61.9584 29.8102C61.0963 29.8102 60.2981 29.6408 59.5638 29.3021C58.8295 28.9633 58.143 28.6162 57.5044 28.2613C57.0255 28.0032 56.5548 27.7612 56.0915 27.5355C55.6288 27.3096 55.2376 27.2289 54.9184 27.2935C54.7906 27.3578 54.5832 27.5192 54.296 27.7775C54.0085 28.0356 53.6733 28.5358 53.2901 29.2779C53.0987 29.633 52.8033 29.9072 52.4042 30.101C52.0051 30.2945 51.6298 30.3267 51.2787 30.1978C50.7998 30.0686 50.4248 29.7944 50.1533 29.3749C49.8817 28.9552 49.8101 28.5034 49.9379 28.0196C50.0976 27.3096 50.4407 26.5755 50.9674 25.817C51.4943 25.0588 52.149 24.2681 52.9311 23.4453C53.7131 22.6225 54.5991 21.7753 55.589 20.9042C56.5787 20.0329 57.6163 19.1294 58.702 18.1935C58.9894 17.9354 59.3885 17.6046 59.8993 17.2013C60.41 16.7979 60.9449 16.3704 61.5039 15.9183C62.0624 15.4664 62.5895 15.0311 63.0844 14.6114C63.5792 14.192 63.9703 13.8532 64.2578 13.5951C63.0767 13.9824 62.0308 14.2487 61.1207 14.3938C60.2108 14.539 59.4206 14.5875 58.75 14.539C58.0796 14.4903 57.5368 14.3777 57.1217 14.2C56.7067 14.0226 56.4193 13.8049 56.2594 13.5466L53.0987 18.871C52.973 19.0614 52.8397 19.2244 52.6988 19.3602L52.6675 19.4033C52.5078 19.5968 52.2204 20.0648 51.8054 20.807C51.3904 21.5493 50.8635 22.3883 50.2249 23.3242C49.5863 24.2598 48.8679 25.2201 48.0775 26.2043C47.2795 27.1885 46.4492 28.0276 45.5792 28.7215C44.7171 29.4151 43.8233 29.8751 42.8973 30.101C41.9713 30.3267 41.0774 30.1653 40.2153 29.6169C39.8642 29.391 39.5208 29.0924 39.1858 28.7215C38.8504 28.3505 38.5871 27.8904 38.3956 27.342C38.2642 26.9654 38.1814 26.5396 38.1479 26.0649C37.3355 27.1933 36.4999 28.1678 35.6417 28.9876C34.7636 29.8268 33.9257 30.2462 33.1275 30.2462C32.1696 30.2462 31.3873 29.956 30.7808 29.3752C30.0784 28.7622 29.6472 28.06 29.4878 27.2696C29.3282 26.479 29.3918 25.5594 29.6793 24.5104C29.9665 23.4619 30.4456 22.2759 31.116 20.9527C31.7867 19.6298 32.6008 18.1452 33.5586 16.4996C34.229 15.3699 34.5961 14.5632 34.6602 14.0791C34.7239 13.5951 34.7559 13.337 34.7559 13.3046C34.6923 13.2402 34.4764 13.1676 34.1094 13.0869C33.7424 13.0062 33.0479 13.0467 32.0261 13.208C31.7071 13.821 31.3717 14.4503 31.0205 15.0957C30.6692 15.7411 30.3342 16.3463 30.0149 16.911C29.6957 17.4757 29.4 17.9839 29.129 18.4357C28.8574 18.8876 28.6421 19.2103 28.4825 19.4038C28.2268 19.7589 27.9394 19.9927 27.6201 20.1058C27.3008 20.2186 27.0295 20.2266 26.806 20.1301C26.5824 20.0331 26.4546 19.8476 26.4228 19.5735C26.3912 19.299 26.5178 18.9366 26.805 18.4845ZM104.848 41.5423C104.53 41.5423 104.261 41.4319 104.042 41.2108C103.669 40.8335 103.605 40.309 103.851 39.6368C103.933 39.3977 104.042 39.1562 104.179 38.9122C104.316 38.6682 104.457 38.4267 104.603 38.1874C104.958 37.6075 105.195 37.1449 105.313 36.7998C105.431 36.4547 105.404 36.2912 105.231 36.3097C105.067 36.328 104.866 36.4523 104.63 36.6826C104.393 36.9127 104.127 37.2349 103.831 37.6492C103.535 38.0631 103.221 38.5695 102.888 39.1676C102.556 39.7662 102.221 40.4426 101.884 41.1974C101.821 41.3261 101.723 41.416 101.59 41.4665C101.458 41.5172 101.329 41.5103 101.201 41.4457C101.073 41.3907 100.985 41.2963 100.935 41.163C100.885 41.0295 100.891 40.8983 100.955 40.7694C101.137 40.3551 101.356 39.8973 101.611 39.3955C101.866 38.8939 102.144 38.3989 102.444 37.9115C102.626 37.5707 102.756 37.2556 102.834 36.9656C102.911 36.6758 102.886 36.4893 102.759 36.4064C102.649 36.3328 102.492 36.335 102.287 36.4133C102.082 36.4915 101.827 36.6987 101.522 37.0345C101.217 37.3704 100.862 37.87 100.457 38.5325C100.051 39.1954 99.5889 40.0743 99.07 41.1696C99.0244 41.2617 98.9608 41.3329 98.8788 41.3836C98.7968 41.4343 98.7059 41.4594 98.6055 41.4594C98.5235 41.4594 98.4507 41.4411 98.3871 41.4043C98.2597 41.3307 98.1707 41.2271 98.1208 41.0936C98.0902 41.0121 98.0825 40.9317 98.0977 40.8523C97.9226 41.0197 97.7461 41.1625 97.5676 41.28C97.3583 41.418 97.1625 41.4872 96.9802 41.4872C96.7526 41.4872 96.5522 41.4272 96.3793 41.3076C96.2881 41.2525 96.1948 41.1672 96.0993 41.0521C96.0038 40.9371 95.9331 40.7784 95.8876 40.5759C95.8511 40.4011 95.8466 40.2079 95.8741 39.9961C95.9013 39.7845 95.9512 39.559 96.024 39.3195C95.8056 39.6141 95.5825 39.8881 95.3549 40.1411C95.1272 40.3943 94.9015 40.6127 94.6784 40.7969C94.4556 40.981 94.2323 41.126 94.0092 41.2317C93.7862 41.3375 93.5653 41.3904 93.3466 41.3904C93.219 41.3904 93.0847 41.3629 92.9436 41.3076C92.8025 41.2525 92.6952 41.1925 92.6226 41.1279C92.4406 40.9622 92.3381 40.7735 92.3152 40.562L92.3096 40.4977C92.1244 40.709 91.9334 40.8939 91.7347 41.0521C91.489 41.25 91.2339 41.3812 90.9698 41.4455C90.7055 41.5101 90.4506 41.464 90.2047 41.3076C90.1046 41.2432 90.0067 41.1581 89.9109 41.0521C89.8152 40.9464 89.7402 40.8152 89.6855 40.6585C89.6445 40.5408 89.6201 40.406 89.6124 40.2547C89.4851 40.4184 89.3498 40.5737 89.2077 40.7209C88.9982 40.9371 88.7797 41.1213 88.5518 41.2732C88.3242 41.4253 88.0963 41.5103 87.8689 41.5286C87.8508 41.5286 87.8301 41.5308 87.8076 41.5354C87.7847 41.5401 87.7642 41.5423 87.7459 41.5423C87.4273 41.5423 87.1587 41.4319 86.94 41.2108C86.5664 40.8335 86.5028 40.309 86.7488 39.6368C86.8307 39.3977 86.94 39.1562 87.0765 38.9122C87.2132 38.6682 87.3543 38.4267 87.5002 38.1874C87.8551 37.6075 88.0922 37.1449 88.2104 36.7998C88.3288 36.4547 88.3015 36.2912 88.1284 36.3097C87.9644 36.328 87.764 36.4523 87.5274 36.6826C87.2904 36.9127 87.0241 37.2349 86.7283 37.6492C86.4321 38.0631 86.1181 38.5695 85.7856 39.1676C85.4531 39.7662 85.1184 40.4426 84.7815 41.1974C84.7178 41.3261 84.6197 41.416 84.4875 41.4665C84.3556 41.5172 84.2259 41.5103 84.098 41.4457C83.9707 41.3907 83.882 41.2963 83.8318 41.163C83.7819 41.0295 83.7887 40.8983 83.8523 40.7694C84.0344 40.3551 84.2531 39.8973 84.508 39.3955C84.7631 38.8939 85.0409 38.3989 85.3414 37.9115C85.5237 37.5707 85.6535 37.2556 85.7309 36.9656C85.8083 36.6758 85.7834 36.4893 85.6559 36.4064C85.5464 36.3328 85.3894 36.335 85.1844 36.4133C84.9794 36.4915 84.7246 36.6987 84.4195 37.0345C84.1144 37.3704 83.7592 37.87 83.3539 38.5325C82.9485 39.1954 82.4862 40.0743 81.9673 41.1696C81.9217 41.2617 81.858 41.3329 81.776 41.3836C81.694 41.4343 81.6031 41.4594 81.5028 41.4594C81.4208 41.4594 81.348 41.4411 81.2843 41.4043C81.1568 41.3307 81.068 41.2271 81.0181 41.0936C80.9679 40.96 80.9793 40.8289 81.0521 40.7002L81.3446 40.1152C81.1626 40.29 80.981 40.4506 80.7994 40.5966C80.13 41.1352 79.5037 41.4321 78.9211 41.4872C78.8663 41.4964 78.8118 41.5011 78.7571 41.5011C78.7026 41.5011 78.6479 41.5011 78.5931 41.5011C78.0648 41.5011 77.6642 41.3768 77.3907 41.1282C77.145 40.8981 76.988 40.6312 76.9195 40.3275C76.8887 40.1906 76.8703 40.0499 76.8646 39.9061C76.7821 40.0302 76.6982 40.152 76.6123 40.2722C76.3757 40.6034 76.132 40.8888 75.8814 41.1279C75.6308 41.3675 75.3919 41.4869 75.1645 41.4869C74.8912 41.4869 74.6679 41.4041 74.495 41.2386C74.2946 41.0636 74.1717 40.8635 74.1263 40.638C74.0805 40.4126 74.0988 40.1501 74.1808 39.851C74.2628 39.5517 74.3993 39.2137 74.5905 38.8362C74.782 38.4589 75.0142 38.0353 75.2872 37.5659C75.4787 37.2439 75.5833 37.0136 75.6014 36.8756C75.6198 36.7377 75.6287 36.6641 75.6287 36.6548C75.6103 36.6363 75.5491 36.6156 75.4442 36.5924C75.3395 36.5695 75.1413 36.5807 74.8498 36.627C74.7589 36.8018 74.6634 36.9814 74.563 37.1654C74.463 37.3494 74.3672 37.5222 74.2763 37.6833C74.1852 37.8444 74.101 37.9892 74.0236 38.1181C73.9462 38.2471 73.8847 38.3392 73.8391 38.3943C73.8109 38.4335 73.7815 38.4674 73.7506 38.4962C73.4607 38.9146 73.1668 39.297 72.8695 39.6439C72.5415 40.0258 72.1887 40.3524 71.8108 40.6241C71.4329 40.8957 71.0184 41.1028 70.5677 41.2456C70.117 41.3882 69.6046 41.4596 69.0309 41.4596C68.7393 41.4596 68.489 41.4228 68.2794 41.3492C68.0699 41.2756 67.8878 41.1835 67.733 41.0731C67.5507 41.4046 67.373 41.7173 67.2001 42.0119C67.0271 42.3066 66.8721 42.571 66.7356 42.8057C66.5991 43.0404 66.4829 43.2408 66.3874 43.4063C66.2916 43.572 66.2256 43.6871 66.1892 43.7514C66.1436 43.8345 66.0799 43.8964 65.9979 43.9379C65.9159 43.979 65.8339 44 65.752 44C65.6336 44 65.547 43.9768 65.4925 43.9308C65.3652 43.8572 65.2856 43.7514 65.2535 43.6132C65.2214 43.4753 65.2419 43.3466 65.3148 43.2267C65.479 42.9415 65.6837 42.5871 65.9297 42.1638C66.1757 41.7404 66.4373 41.2824 66.7151 40.7899C66.9929 40.2975 67.2729 39.7957 67.5553 39.2851C67.8374 38.7743 68.0969 38.2888 68.3339 37.8284C68.5705 37.3682 68.7733 36.9585 68.9416 36.5995C69.1102 36.2407 69.2173 35.9643 69.2626 35.7713C69.3082 35.6333 69.3902 35.5273 69.5083 35.4537C69.6267 35.3801 69.7543 35.3616 69.891 35.3986C70.0275 35.4354 70.1324 35.5134 70.2052 35.6334C70.2781 35.753 70.2964 35.8817 70.2598 36.0197C70.2325 36.1303 70.1915 36.2544 70.1368 36.3926C70.5376 35.9782 70.9292 35.7113 71.3116 35.5917C71.6938 35.472 72.0037 35.4859 72.2405 35.6331C72.295 35.6699 72.3589 35.7228 72.4318 35.792C72.5046 35.861 72.5707 35.946 72.63 36.0472C72.6891 36.1486 72.7368 36.2726 72.7732 36.4201C72.8097 36.5673 72.8188 36.7377 72.8005 36.9307C72.7732 37.3726 72.6276 37.8649 72.3633 38.4082C72.236 38.6658 72.0879 38.9256 71.9193 39.1881C71.7508 39.4504 71.5665 39.706 71.3661 39.9546C71.7486 39.7704 72.1014 39.5264 72.4248 39.223C72.7482 38.919 73.0554 38.5556 73.3467 38.132C73.3694 38.0977 73.3927 38.0672 73.4169 38.0409C73.5256 37.8637 73.6344 37.6731 73.7429 37.4693C73.8705 37.23 73.9886 36.986 74.0979 36.7377C74.2073 36.4891 74.3007 36.2451 74.3778 36.0058C74.4553 35.7664 74.5076 35.5549 74.5348 35.3706C74.5621 35.1863 74.6306 35.046 74.7398 34.9492C74.849 34.8527 74.9585 34.8088 75.0678 34.8181C75.177 34.8276 75.2636 34.8919 75.3272 35.0114C75.3909 35.131 75.3909 35.3106 75.3272 35.5497C75.5366 35.559 75.7461 35.598 75.9557 35.6672C76.1652 35.7362 76.3384 35.8676 76.4749 36.0608C76.6297 36.2999 76.6844 36.5878 76.6388 36.9239C76.5933 37.2597 76.4385 37.6534 76.1746 38.1042C75.9014 38.5646 75.6897 38.9305 75.5392 39.202C75.3887 39.4735 75.2819 39.7243 75.2182 39.9546C75.1727 40.1111 75.1476 40.2283 75.1432 40.3066C75.1384 40.3848 75.1454 40.4331 75.1637 40.4516C75.191 40.4516 75.2549 40.4309 75.355 40.3892C75.455 40.348 75.5939 40.2488 75.7717 40.0923C75.9494 39.9356 76.1657 39.7033 76.4206 39.395C76.6757 39.0867 76.967 38.6655 77.295 38.1318C77.3107 38.1069 77.3266 38.0835 77.3428 38.0621C77.4525 37.8444 77.5731 37.6375 77.7045 37.4416C77.9324 37.0918 78.1943 36.7674 78.4901 36.4681C78.786 36.1691 79.0935 35.9251 79.4121 35.7364C79.7309 35.5478 80.0475 35.4328 80.3615 35.3911C80.6757 35.3499 80.9692 35.4074 81.2426 35.5639C81.4703 35.6926 81.6388 35.8698 81.7481 36.0955C81.8573 36.3209 81.8939 36.5717 81.8573 36.8478C81.839 37.0687 81.7801 37.2851 81.6798 37.4969C81.5795 37.7084 81.4543 37.9063 81.3041 38.0904C81.1539 38.2746 80.9786 38.4357 80.7782 38.5737C80.5778 38.7119 80.3639 38.8176 80.136 38.8912C80.0359 38.9188 79.9151 38.9441 79.774 38.967C79.6327 38.99 79.4803 38.9946 79.3163 38.9807C79.1523 38.967 78.9818 38.9254 78.8041 38.8566C78.6264 38.7874 78.4422 38.6838 78.2507 38.5459C78.1595 38.7299 78.0845 38.9117 78.0255 39.0913C77.9661 39.2705 77.9275 39.4389 77.9092 39.5951C77.8909 39.7516 77.8957 39.8966 77.923 40.0299C77.9502 40.1635 78.0049 40.2717 78.0869 40.3546C78.2782 40.5479 78.5468 40.6237 78.8929 40.5825C79.2389 40.541 79.6124 40.4121 80.013 40.1957C80.4138 39.9795 80.8189 39.6919 81.2289 39.3326C81.6388 38.9736 82.0075 38.5732 82.3355 38.1315L82.3369 38.1293L83.5376 35.7291C83.6013 35.6002 83.6992 35.5127 83.8313 35.4669C83.9635 35.4208 84.0932 35.4347 84.2208 35.5083C84.3392 35.5729 84.4123 35.6531 84.4395 35.7498C84.4668 35.8466 84.4713 35.9824 84.453 36.1574C84.5531 36.0374 84.6739 35.9295 84.815 35.8327C84.9561 35.7362 85.1041 35.6604 85.2589 35.6051C85.414 35.5497 85.5686 35.522 85.7234 35.522C85.8782 35.522 86.0195 35.5544 86.1471 35.6187C86.3656 35.7384 86.525 35.9317 86.625 36.1986C86.8071 36.0145 86.994 35.8603 87.1852 35.7362C87.3765 35.6119 87.5631 35.5268 87.7452 35.4808C88.1368 35.3796 88.492 35.4484 88.8108 35.6879C88.8928 35.7433 88.9678 35.8169 89.0363 35.9088C89.1048 36.0006 89.1593 36.1113 89.2003 36.2402C89.2413 36.3689 89.2596 36.5161 89.255 36.6821C89.2504 36.8478 89.2118 37.0409 89.139 37.2619C89.0662 37.492 88.9591 37.7313 88.818 37.9797C88.677 38.2283 88.5333 38.4767 88.3876 38.7255C88.2511 38.9463 88.1214 39.1671 87.9981 39.3882C87.8752 39.609 87.7773 39.8116 87.7044 39.9956C87.6772 40.0692 87.6519 40.1545 87.6294 40.251C87.6065 40.3478 87.6179 40.4189 87.6634 40.465C87.6726 40.4925 87.709 40.5064 87.7727 40.5064C87.9094 40.4972 88.0777 40.4258 88.2781 40.2922C88.4785 40.1589 88.6948 39.9839 88.927 39.7674C89.1593 39.5513 89.3958 39.3027 89.6372 39.0219C89.8786 38.7411 90.1041 38.4445 90.3134 38.1313L90.3161 38.1274C90.4499 37.8864 90.5808 37.6531 90.7096 37.4269C90.8372 37.2246 90.9645 37.0082 91.0923 36.7779C91.2196 36.5478 91.2879 36.3867 91.2971 36.2948C91.2971 36.1476 91.3472 36.0233 91.4449 35.9222C91.5454 35.8205 91.6612 35.7701 91.7958 35.7701C91.939 35.7701 92.062 35.8183 92.1599 35.9148C92.2578 36.0116 92.3125 36.1335 92.3215 36.2807C92.3215 36.4832 92.2578 36.7133 92.1324 36.9712C92.0072 37.2288 91.8273 37.5602 91.5929 37.9653C91.4859 38.1586 91.3583 38.3816 91.2148 38.6348C91.0692 38.8881 90.9438 39.1342 90.8394 39.3736C90.7345 39.6129 90.6662 39.8318 90.6344 40.0295C90.6023 40.2274 90.6411 40.3585 90.7504 40.4231C90.7685 40.4323 90.8029 40.437 90.8529 40.437C90.903 40.437 90.9691 40.4184 91.0511 40.3819C91.1331 40.3451 91.2356 40.2851 91.3561 40.2023C91.4791 40.1194 91.6204 40.0043 91.782 39.8571C91.9436 39.7099 92.1008 39.551 92.2556 39.3809C92.4083 39.2105 92.5515 39.045 92.6837 38.8839C92.8158 38.7228 92.9318 38.5778 93.0319 38.4489C93.1322 38.3202 93.2096 38.2142 93.2641 38.1313C93.3012 38.0813 93.3391 38.0394 93.3772 38.0065L93.4898 37.8483C93.7585 37.4754 94.0109 37.1327 94.248 36.8198C94.4028 36.6265 94.553 36.4262 94.6987 36.219C94.8446 36.0118 94.9355 35.8715 94.9719 35.7979C94.9992 35.6692 95.0677 35.5653 95.1769 35.4871C95.2861 35.4089 95.4045 35.3791 95.5319 35.3974C95.6778 35.4159 95.7938 35.4803 95.8803 35.5907C95.9669 35.7011 96.0009 35.8298 95.9828 35.9775C95.9737 36.0511 95.9507 36.1271 95.9143 36.2051C95.8779 36.2834 95.8256 36.3779 95.7573 36.4881C95.6889 36.5985 95.5979 36.7296 95.4841 36.8817C95.3703 37.0336 95.2314 37.22 95.0674 37.4411C94.8579 37.708 94.637 38.0026 94.4047 38.3246C94.1725 38.6468 93.9654 38.9551 93.7831 39.2498C93.5646 39.6178 93.4324 39.8825 93.3869 40.0436C93.3413 40.2047 93.3186 40.3083 93.3186 40.3543H93.3869C93.5417 40.3358 93.7601 40.2369 94.0425 40.0572C94.3249 39.8778 94.6642 39.5973 95.0602 39.2149C95.4566 38.833 95.9095 38.3429 96.4195 37.7445C96.9296 37.1464 97.4987 36.4194 98.1271 35.5632C98.136 35.5539 98.1452 35.5493 98.1544 35.5493C98.2363 35.4481 98.3432 35.3884 98.4753 35.3699C98.6075 35.3516 98.7281 35.3791 98.8373 35.4527C98.9557 35.5356 99.0263 35.6482 99.049 35.791C99.0717 35.9336 99.0423 36.0645 98.9603 36.1844C98.0769 37.3994 97.4669 38.4257 97.1297 39.2632C96.9749 39.6682 96.8951 39.9583 96.8907 40.133C96.8862 40.3083 96.8932 40.4092 96.9112 40.437C96.9477 40.4555 97.0501 40.437 97.2187 40.3819C97.387 40.3266 97.6354 40.1516 97.9631 39.8571C98.1273 39.7099 98.2865 39.551 98.4413 39.3809C98.5961 39.2105 98.7372 39.045 98.8648 38.8839C98.9923 38.7228 99.1062 38.5778 99.2062 38.4489C99.3063 38.3202 99.384 38.2142 99.4385 38.1313L99.4399 38.1293L100.641 35.7289C100.704 35.6 100.802 35.5125 100.934 35.4666C101.066 35.4206 101.196 35.4345 101.324 35.5081C101.442 35.5727 101.515 35.6528 101.542 35.7496C101.57 35.8464 101.574 35.9821 101.556 36.1571C101.656 36.0372 101.777 35.9292 101.918 35.8325C102.059 35.736 102.207 35.6602 102.362 35.6048C102.517 35.5495 102.672 35.5217 102.826 35.5217C102.981 35.5217 103.122 35.5541 103.25 35.6185C103.469 35.7382 103.628 35.9314 103.728 36.1983C103.91 36.0143 104.097 35.86 104.288 35.736C104.479 35.6117 104.666 35.5266 104.848 35.4805C105.24 35.3794 105.595 35.4481 105.914 35.6877C105.996 35.743 106.071 35.8166 106.139 35.9085C106.208 36.0004 106.262 36.1111 106.303 36.24C106.344 36.3687 106.363 36.5159 106.358 36.6819C106.353 36.8476 106.315 37.0406 106.242 37.2617C106.169 37.4918 106.062 37.7311 105.921 37.9795C105.779 38.2281 105.636 38.4764 105.49 38.7253C105.354 38.9461 105.224 39.1669 105.101 39.388C104.978 39.6088 104.88 39.8113 104.807 39.9953C104.78 40.0689 104.755 40.1542 104.732 40.2507C104.709 40.3475 104.721 40.4187 104.766 40.4647C104.775 40.4923 104.812 40.5062 104.875 40.5062C105.012 40.4969 105.18 40.4255 105.381 40.2919C105.581 40.1586 105.798 39.9836 106.03 39.7672C106.262 39.551 106.499 39.3024 106.74 39.0216C106.981 38.7409 107.207 38.4443 107.416 38.1311C107.489 38.0207 107.569 37.9514 107.655 37.9239C107.742 37.8964 107.817 37.8985 107.881 37.9307C107.944 37.9631 107.983 38.0182 107.997 38.0967C108.01 38.1747 107.981 38.269 107.908 38.3794C107.871 38.4257 107.808 38.5315 107.717 38.6972C107.625 38.863 107.509 39.0609 107.368 39.2907C107.227 39.5208 107.068 39.7626 106.89 40.0156C106.712 40.2688 106.519 40.5035 106.31 40.7197C106.1 40.9359 105.882 41.1201 105.654 41.272C105.426 41.4241 105.198 41.5091 104.971 41.5274C104.953 41.5274 104.932 41.5296 104.91 41.5342C104.887 41.5388 104.866 41.541 104.848 41.541L104.848 41.5423ZM93.2644 34.5975C93.2644 34.7815 93.2029 34.9358 93.0799 35.0601C92.9569 35.1842 92.8045 35.2466 92.6224 35.2466C92.4401 35.2466 92.2877 35.1842 92.1647 35.0601C92.0417 34.9358 91.9802 34.7815 91.9802 34.5975C91.9802 34.4135 92.0415 34.2592 92.1647 34.1349C92.2877 34.0109 92.4401 33.9485 92.6224 33.9485C92.8045 33.9485 92.9569 34.0109 93.0799 34.1349C93.2029 34.2592 93.2644 34.4135 93.2644 34.5975ZM78.8116 37.6626C79.1215 37.9297 79.4581 38.0077 79.8225 37.8973C80.041 37.8327 80.2324 37.7201 80.3962 37.559C80.5602 37.3979 80.6897 37.23 80.7854 37.0552C80.8811 36.8805 80.9359 36.7194 80.9494 36.5719C80.9631 36.4247 80.9243 36.3236 80.8334 36.2683C80.7514 36.2132 80.6308 36.2083 80.4714 36.2544C80.312 36.3004 80.1367 36.3855 79.9455 36.5098C79.754 36.6341 79.5582 36.7952 79.358 36.9929C79.1579 37.1908 78.9756 37.4143 78.8116 37.6626ZM68.8121 40.562C68.9761 40.5895 69.1741 40.5366 69.4063 40.4033C69.6385 40.2698 69.8775 40.0787 70.1235 39.8303C70.3692 39.5817 70.6085 39.2941 70.8407 38.9673C71.0727 38.6404 71.2709 38.3024 71.4346 37.9524C71.6258 37.5566 71.7418 37.209 71.7831 36.91C71.8238 36.6107 71.8036 36.4245 71.7213 36.3509C71.6394 36.2865 71.5234 36.298 71.3731 36.3853C71.2229 36.4727 71.0497 36.6131 70.8539 36.8064C70.6581 36.9999 70.4464 37.2322 70.219 37.5037C69.9911 37.7752 69.7635 38.0652 69.5358 38.3736C69.3082 38.6819 69.0895 38.9926 68.8801 39.3056C68.6706 39.6183 68.4839 39.9083 68.32 40.1754C68.42 40.2305 68.5114 40.2927 68.5932 40.3619C68.6749 40.4311 68.7482 40.4974 68.8121 40.562ZM61.8957 41.4869C61.7865 41.4869 61.684 41.4709 61.5885 41.4387C61.4928 41.4067 61.3946 41.3629 61.2946 41.3076C61.2034 41.2525 61.1168 41.1789 61.0351 41.0867C60.9531 40.9946 60.8894 40.8749 60.8439 40.7277C60.7983 40.5805 60.7732 40.408 60.7689 40.21C60.7652 40.0604 60.7841 39.8888 60.8248 39.6948C60.5053 40.0397 60.186 40.3402 59.8675 40.5966C59.198 41.1352 58.5718 41.4321 57.9889 41.4872C57.9344 41.4964 57.8797 41.5011 57.8249 41.5011C57.7704 41.5011 57.7157 41.5011 57.6612 41.5011C57.1328 41.5011 56.7323 41.3768 56.4588 41.1282C56.2131 40.8981 56.0561 40.6312 55.9876 40.3275C55.9293 40.0682 55.9157 39.7974 55.9469 39.5149C55.5728 39.9363 55.1993 40.2966 54.8265 40.5968C54.1571 41.1355 53.5308 41.4323 52.9479 41.4874C52.8934 41.4967 52.8387 41.5013 52.784 41.5013C52.7295 41.5013 52.6747 41.5013 52.62 41.5013C52.0916 41.5013 51.6911 41.377 51.4178 41.1284C51.1721 40.8983 51.0149 40.6315 50.9466 40.3278C50.8784 40.0241 50.8714 39.7041 50.9262 39.3682C50.9807 39.0324 51.081 38.6987 51.2266 38.3672C51.3723 38.0358 51.5408 37.7274 51.7321 37.4423C51.9597 37.0925 52.2218 36.7681 52.5177 36.4688C52.8136 36.1698 53.1211 35.9258 53.4396 35.7372C53.7584 35.5485 54.0751 35.4335 54.389 35.3918C54.7033 35.3506 54.9967 35.4081 55.2702 35.5646C55.4978 35.6933 55.6664 35.8705 55.7754 36.0962C55.8846 36.3216 55.9213 36.5724 55.8846 36.8486C55.8663 37.0694 55.8075 37.2858 55.7074 37.4976C55.6068 37.7092 55.4819 37.9071 55.3314 38.0911C55.1812 38.2753 55.0059 38.4364 54.8055 38.5744C54.6051 38.7126 54.3912 38.8184 54.1633 38.892C54.0632 38.9195 53.9424 38.9449 53.8014 38.9678C53.6603 38.9907 53.5076 38.9953 53.3437 38.9814C53.1797 38.9678 53.0092 38.9261 52.8315 38.8574C52.6537 38.7881 52.4695 38.6846 52.278 38.5466C52.1869 38.7306 52.1119 38.9124 52.0528 39.0921C51.9935 39.2712 51.9546 39.4396 51.9366 39.5959C51.9185 39.7523 51.9231 39.8973 51.9503 40.0307C51.9776 40.1642 52.0323 40.2724 52.1143 40.3553C52.3055 40.5486 52.5742 40.6244 52.9202 40.5832C53.2663 40.5418 53.6398 40.4128 54.0403 40.1964C54.4411 39.9802 54.8462 39.6926 55.2562 39.3334C55.6662 38.9744 56.0349 38.5739 56.3628 38.1323C56.3763 38.1128 56.3896 38.095 56.4031 38.0779C56.515 37.8544 56.6382 37.6424 56.7726 37.442C57.0004 37.0923 57.2623 36.7679 57.5582 36.4686C57.8543 36.1695 58.1616 35.9256 58.4801 35.7369C58.7989 35.5483 59.1155 35.4333 59.4295 35.3916C59.7437 35.3504 60.0372 35.4079 60.3107 35.5644C60.5383 35.6931 60.7069 35.8703 60.8161 36.0959C60.9254 36.3214 60.962 36.5722 60.9254 36.8483C60.907 37.0691 60.8482 37.2856 60.7481 37.4974C60.6478 37.7089 60.5226 37.9068 60.3724 38.0908C60.2219 38.2751 60.0469 38.4362 59.8465 38.5742C59.6461 38.7123 59.4322 38.8181 59.2043 38.8917C59.1042 38.9193 58.9836 38.9446 58.8423 38.9675C58.7013 38.9904 58.5489 38.9951 58.3846 38.9812C58.2207 38.9675 58.0502 38.9259 57.8724 38.8571C57.6947 38.7879 57.5105 38.6843 57.319 38.5464C57.2281 38.7304 57.1528 38.9122 57.0938 39.0918C57.0344 39.271 56.9956 39.4394 56.9775 39.5956C56.9592 39.7521 56.964 39.8971 56.9913 40.0304C57.0185 40.164 57.0733 40.2722 57.155 40.3551C57.3462 40.5483 57.6149 40.6241 57.9612 40.583C58.3072 40.5415 58.6808 40.4126 59.0813 40.1962C59.4821 39.98 59.8872 39.6924 60.2972 39.3331C60.7071 38.9741 61.0758 38.5737 61.4038 38.132L61.4323 38.0925C61.61 37.7309 61.8234 37.3343 62.073 36.9032C62.1731 36.7284 62.278 36.5534 62.3872 36.3784C62.4967 36.2037 62.6059 36.0287 62.7152 35.8537C62.8519 35.6236 62.993 35.3889 63.1386 35.1495C63.2845 34.9104 63.4164 34.6777 63.5348 34.4525C63.6532 34.227 63.7557 34.0152 63.8423 33.8171C63.9286 33.6192 63.9812 33.4466 63.9995 33.2994C64.0179 33.1612 64.0837 33.0508 64.1975 32.968C64.3113 32.8851 64.4411 32.8529 64.5867 32.8712C64.7235 32.8897 64.8351 32.9565 64.9214 33.0715C65.008 33.1866 65.042 33.3131 65.0239 33.451C64.9603 33.8654 64.7893 34.3231 64.5117 34.8249C64.2339 35.3265 63.9221 35.8534 63.5761 36.4057C63.476 36.5712 63.3711 36.7416 63.2619 36.9166C63.1526 37.0913 63.0477 37.2617 62.9476 37.4272C62.6561 37.9241 62.4219 38.3685 62.2442 38.7596C62.0665 39.1508 61.9367 39.4891 61.8548 39.7745C61.7911 40.0136 61.7658 40.1793 61.7795 40.2715C61.793 40.3636 61.8092 40.4141 61.8273 40.4231C61.8456 40.4323 61.8796 40.437 61.9298 40.437C61.9797 40.437 62.0482 40.4184 62.1347 40.3819C62.2211 40.3451 62.326 40.2851 62.4489 40.2023C62.5719 40.1194 62.7152 40.0043 62.8792 39.8571C63.0431 39.7099 63.2028 39.551 63.3574 39.3809C63.5122 39.2105 63.6532 39.045 63.7808 38.8839C63.9084 38.7228 64.0222 38.5778 64.1223 38.4489C64.2226 38.3202 64.3 38.2142 64.3545 38.1313C64.4273 38.0209 64.5096 37.9541 64.6005 37.931C64.6916 37.9081 64.7666 37.9127 64.8257 37.9449C64.885 37.9768 64.9214 38.0323 64.9352 38.1103C64.9487 38.1888 64.919 38.2831 64.8462 38.3936C64.8006 38.4486 64.7256 38.5639 64.621 38.7387C64.5161 38.9134 64.3863 39.1162 64.2315 39.3463C64.0765 39.5764 63.9035 39.8181 63.7123 40.0711C63.5208 40.3244 63.3231 40.5542 63.1181 40.7614C62.9132 40.9685 62.706 41.1411 62.4965 41.2793C62.2869 41.4172 62.087 41.4869 61.8957 41.4869ZM57.8797 37.6624C58.1893 37.9295 58.5262 38.0075 58.8906 37.8971C59.109 37.8325 59.3005 37.7199 59.4642 37.5588C59.6282 37.3977 59.758 37.2298 59.8537 37.055C59.9494 36.8803 60.0039 36.7192 60.0177 36.5717C60.0314 36.4245 59.9926 36.3233 59.9017 36.268C59.8197 36.2129 59.6991 36.208 59.5397 36.2541C59.3803 36.3002 59.205 36.3852 59.0138 36.5095C58.8223 36.6338 58.6265 36.795 58.4264 36.9926C58.2262 37.1905 58.0436 37.414 57.8797 37.6624ZM52.8389 37.6624C53.1488 37.9295 53.4855 38.0075 53.8498 37.8971C54.0683 37.8325 54.2598 37.7199 54.4235 37.5588C54.5875 37.3977 54.7172 37.2298 54.813 37.055C54.9087 36.8803 54.9632 36.7192 54.977 36.5717C54.9907 36.4245 54.9519 36.3233 54.861 36.268C54.779 36.2129 54.6584 36.208 54.499 36.2541C54.3396 36.3002 54.1643 36.3852 53.9731 36.5095C53.7816 36.6338 53.5858 36.795 53.3856 36.9926C53.1852 37.1905 53.0027 37.414 52.8389 37.6624ZM51.7053 34.3489C51.168 34.5329 50.6717 34.7883 50.2164 35.1152C49.7612 35.442 49.3555 35.8398 49.0006 36.3094C48.7819 36.5856 48.5817 36.8756 48.3994 37.1793C48.2171 37.483 48.0442 37.7913 47.8804 38.1042C48.0261 38.095 48.1717 38.0974 48.3174 38.1111C48.4633 38.125 48.5998 38.1525 48.7274 38.1939C48.8547 38.2354 48.9663 38.2953 49.0621 38.3736C49.1578 38.4518 49.233 38.5554 49.2875 38.6843C49.3423 38.8223 49.3466 38.949 49.301 39.064C49.2555 39.1788 49.1875 39.2688 49.0961 39.3331C49.0052 39.3975 48.9005 39.4274 48.7818 39.4228C48.6634 39.4184 48.5588 39.3653 48.4676 39.2641L48.3994 39.1813C48.2535 39.1169 48.076 39.0984 47.8667 39.1262C47.6571 39.1537 47.4751 39.1769 47.3202 39.1952L46.8695 40.0787C46.7056 40.3826 46.5302 40.6885 46.3436 40.9968C46.1569 41.3051 45.952 41.5998 45.7289 41.8806C45.5059 42.1613 45.2599 42.4167 44.9912 42.6468C44.7226 42.8769 44.4243 43.0565 44.0966 43.1855C43.805 43.3051 43.4976 43.367 43.1744 43.3719C42.851 43.3765 42.5438 43.3144 42.2523 43.1855C42.1522 43.1487 42.0451 43.0863 41.9313 42.999C41.8175 42.9115 41.7263 42.8148 41.6581 42.7092C41.5898 42.6032 41.5626 42.495 41.5761 42.3846C41.5898 42.2742 41.674 42.1684 41.8288 42.067C41.9656 41.9841 42.0975 41.9773 42.225 42.0463C42.3528 42.1153 42.4845 42.1774 42.6215 42.2327C42.7488 42.279 42.8672 42.3066 42.9764 42.3158C43.0859 42.3251 43.2043 42.3205 43.3317 42.302C43.5137 42.2834 43.6707 42.2469 43.8029 42.1916C43.935 42.1362 44.0785 42.0534 44.2333 41.9429C44.6341 41.6485 44.9847 41.2759 45.285 40.8247C45.5854 40.3738 45.8681 39.8903 46.1321 39.375C45.8406 39.4396 45.5517 39.5132 45.2647 39.5961C44.978 39.679 44.7021 39.7894 44.4383 39.9273C44.3655 39.9644 44.2878 39.9919 44.2061 40.0104C44.1243 40.029 44.051 40.0333 43.9873 40.0241C43.9237 40.0148 43.8713 39.9829 43.8301 39.9273C43.7894 39.8722 43.7732 39.7847 43.7824 39.6651C43.7915 39.5729 43.8234 39.4928 43.8781 39.4235C43.9328 39.3548 43.9987 39.2924 44.0763 39.2371C44.1535 39.182 44.2357 39.1359 44.322 39.0991C44.4086 39.0623 44.4882 39.0255 44.561 38.9887C44.889 38.8228 45.2305 38.6824 45.5857 38.5676C45.9409 38.4525 46.2961 38.3582 46.6513 38.2846L47.1158 37.3458C47.3251 36.95 47.553 36.5632 47.7987 36.1861C48.0447 35.8088 48.3408 35.4727 48.6868 35.1781C48.9781 34.9297 49.2832 34.7272 49.602 34.5707C49.5019 34.5892 49.4086 34.5982 49.322 34.5982C49.2355 34.5982 49.1467 34.6031 49.0558 34.6121C48.6005 34.6307 48.1474 34.6375 47.6964 34.6326C47.2457 34.6282 46.797 34.6533 46.3511 34.7086C45.9411 34.7547 45.5907 34.8883 45.2992 35.1091C45.0076 35.3299 44.7436 35.6014 44.5068 35.9239C44.3703 36.1079 44.2041 36.2276 44.0083 36.2826C43.8125 36.3377 43.6304 36.3377 43.4619 36.2826C43.2933 36.2276 43.1612 36.1193 43.0657 35.9582C42.9699 35.7971 42.9586 35.5922 43.0312 35.344C43.0951 35.1137 43.2089 34.9114 43.3729 34.7364C43.5369 34.5617 43.7257 34.412 43.9396 34.2877C44.1535 34.1634 44.379 34.0645 44.616 33.9909C44.8526 33.9173 45.0759 33.8622 45.2852 33.8251C45.7769 33.733 46.2688 33.6709 46.7605 33.6384C47.2522 33.6065 47.7488 33.5834 48.2496 33.5695C48.7505 33.5556 49.249 33.5395 49.7452 33.5212C50.2418 33.5029 50.7359 33.4569 51.2276 33.3833C51.3277 33.3372 51.4437 33.2958 51.5758 33.259C51.708 33.2222 51.8194 33.1897 51.9105 33.1622C51.9833 33.1437 52.0699 33.1278 52.17 33.1139C52.2701 33.1003 52.3793 33.0935 52.498 33.0935C52.7256 33.0935 52.9214 33.1415 53.0851 33.2382C53.2491 33.335 53.2855 33.5029 53.1946 33.7423C53.1488 33.8529 53.0716 33.9426 52.9624 34.0116C52.8529 34.0806 52.7302 34.1356 52.5934 34.1773C52.4567 34.2188 52.3181 34.2509 52.1767 34.2741C52.0357 34.297 51.9194 34.3131 51.8285 34.3223L51.7055 34.3499L51.7053 34.3489ZM93.5209 16.8386C94.6066 17.7745 95.7877 18.0487 97.0651 17.6614C97.8315 17.4357 98.5016 17.0404 99.0763 16.4754C99.6512 15.9107 100.106 15.3219 100.441 14.7089C100.777 14.0957 100.968 13.531 101.016 13.0145C101.064 12.4983 100.928 12.1434 100.609 11.9497C100.321 11.7559 99.8986 11.7398 99.3398 11.9014C98.7811 12.0628 98.1664 12.3611 97.496 12.7969C96.8256 13.2327 96.1393 13.7971 95.4366 14.4908C94.7341 15.1847 94.0956 15.9673 93.5209 16.8386ZM50.9428 6.09268C50.9428 6.73807 50.7274 7.27841 50.2963 7.71419C49.8653 8.14998 49.3305 8.36762 48.6921 8.36762C48.0536 8.36762 47.5185 8.14998 47.0875 7.71419C46.6564 7.27841 46.441 6.73807 46.441 6.09268C46.441 5.44729 46.6564 4.9067 47.0875 4.47116C47.5185 4.03562 48.0533 3.81748 48.6921 3.81748C49.3305 3.81748 49.8656 4.03538 50.2963 4.47116C50.7274 4.9067 50.9428 5.44704 50.9428 6.09268Z" fill="url(#paint0_linear_30_568)"/>
<defs>
<linearGradient id="paint0_linear_30_568" x1="-8.7721" y1="25.7761" x2="133.583" y2="18.2481" gradientUnits="userSpaceOnUse">
<stop stop-color="#9A7236"/>
<stop offset="0.301961" stop-color="#E8BF7A"/>
<stop offset="0.580392" stop-color="#C4994A"/>
<stop offset="1" stop-color="#937854"/>
</linearGradient>
</defs>
</svg>
