<?xml version="1.0" encoding="UTF-8"?>
<!DOCTYPE svg PUBLIC "-//W3C//DTD SVG 1.1//EN" "http://www.w3.org/Graphics/SVG/1.1/DTD/svg11.dtd">
<!-- Creator: CorelDRAW 2021 (64-Bit) -->
<svg xmlns="http://www.w3.org/2000/svg" xml:space="preserve" width="2.80941in" height="0.987126in" version="1.1" style="shape-rendering:geometricPrecision; text-rendering:geometricPrecision; image-rendering:optimizeQuality; fill-rule:evenodd; clip-rule:evenodd"
viewBox="0 0 2809.41 987.13"
 xmlns:xlink="http://www.w3.org/1999/xlink"
 xmlns:xodm="http://www.corel.com/coreldraw/odm/2003">
 <defs>
  <style type="text/css">
   <![CDATA[
    .fil1 {fill:white}
    .fil2 {fill:url(#id0)}
    .fil0 {fill:url(#id1)}
    .fil3 {fill:url(#id2);fill-rule:nonzero}
   ]]>
  </style>
  <linearGradient id="id0" gradientUnits="userSpaceOnUse" x1="513.73" y1="470.84" x2="3309.16" y2="306.94">
   <stop offset="0" style="stop-opacity:1; stop-color:#9A7236"/>
   <stop offset="0.301961" style="stop-opacity:1; stop-color:#E8BF7A"/>
   <stop offset="0.580392" style="stop-opacity:1; stop-color:#C4994A"/>
   <stop offset="1" style="stop-opacity:1; stop-color:#937854"/>
  </linearGradient>
  <linearGradient id="id1" gradientUnits="objectBoundingBox" xlink:href="#id0" x1="0%" y1="51.2663%" x2="123.837%" y2="48.4202%">
  </linearGradient>
  <linearGradient id="id2" gradientUnits="objectBoundingBox" xlink:href="#id0" x1="0%" y1="188.216%" x2="120.876%" y2="0%">
  </linearGradient>
 </defs>
 <g id="Layer_x0020_1">
  <metadata id="CorelCorpID_0Corel-Layer"/>
  <g id="_2129242064272">
   <path class="fil0" d="M1323.35 157.03c0,16.61 -5.61,30.52 -16.82,41.74 -11.21,11.22 -25.13,16.82 -41.73,16.82 -16.61,0 -30.53,-5.6 -41.74,-16.82 -11.21,-11.22 -16.82,-25.13 -16.82,-41.74 0,-16.61 5.61,-30.53 16.82,-41.74 11.21,-11.22 25.13,-16.83 41.74,-16.83 16.61,0 30.52,5.61 41.73,16.83 11.22,11.21 16.82,25.12 16.82,41.74z"/>
   <path class="fil1" d="M2431.06 433.63c28.24,24.09 58.98,31.15 92.2,21.18 19.93,-5.81 37.37,-15.99 52.32,-30.53 14.96,-14.54 26.79,-29.69 35.51,-45.48 8.72,-15.78 13.7,-30.32 14.96,-43.61 1.24,-13.29 -2.29,-22.43 -10.59,-27.41 -7.48,-4.99 -18.48,-5.4 -33.02,-1.25 -14.54,4.15 -30.53,11.84 -47.97,23.05 -17.44,11.22 -35.3,25.75 -53.58,43.61 -18.27,17.86 -34.89,38.01 -49.83,60.43z"/>
   <path class="fil2" d="M695.38 475.99c11.63,-18.27 23.26,-38.2 34.89,-59.8 11.63,-21.59 22.43,-43.61 32.4,-66.04 9.97,-22.43 18.48,-44.44 25.55,-66.03 7.06,-21.6 11.83,-40.7 14.32,-57.31 2.5,-16.61 8.72,-29.28 18.69,-38 9.96,-8.73 19.94,-12.67 29.9,-11.84 9.97,0.83 17.87,6.65 23.68,17.44 5.81,10.8 5.81,27 0,48.59 19.1,0.83 38.21,4.36 57.31,10.59 19.11,6.23 34.89,18.07 47.35,35.51 14.12,21.6 19.1,47.56 14.95,77.88 -4.15,30.31 -18.27,65.83 -42.36,106.53 -24.92,41.54 -44.23,74.55 -57.94,99.06 -13.71,24.5 -23.46,47.13 -29.28,67.9 -4.15,14.12 -6.44,24.71 -6.86,31.78 -0.41,7.06 0.21,11.42 1.87,13.08 2.49,0 8.31,-1.87 17.44,-5.6 9.14,-3.74 21.81,-12.67 38.01,-26.79 16.19,-14.12 35.93,-35.09 59.18,-62.93 23.26,-27.82 49.84,-65.83 79.74,-114.01l0.44 -0.67c12.13,-21.64 24.03,-42.6 35.7,-62.87 11.63,-18.28 23.26,-37.8 34.89,-58.56 11.63,-20.77 17.86,-35.3 18.69,-43.61 0,-13.29 4.57,-24.5 13.5,-33.64 9.14,-9.13 19.73,-13.7 31.98,-13.7 13.08,0 24.3,4.36 33.22,13.09 8.93,8.72 13.92,19.73 14.74,33.02 0,18.28 -5.81,39.04 -17.23,62.3 -11.43,23.26 -27.83,53.16 -49.22,89.7 -9.76,17.44 -21.39,37.59 -34.47,60.43 -13.29,22.84 -24.71,45.06 -34.26,66.65 -9.56,21.6 -15.78,41.33 -18.69,59.19 -2.91,17.86 0.62,29.69 10.59,35.51 1.66,0.83 4.77,1.24 9.35,1.24 4.57,0 10.59,-1.67 18.06,-4.98 7.48,-3.32 16.82,-8.72 27.83,-16.2 11.21,-7.48 24.09,-17.86 38.84,-31.15 14.74,-13.29 29.07,-27.62 43.19,-42.99 13.91,-15.37 26.99,-30.32 39.04,-44.85 12.04,-14.54 22.64,-27.62 31.77,-39.25 9.14,-11.63 16.2,-21.18 21.18,-28.66 2.9,-3.87 5.83,-7.17 8.8,-9.91 18.06,-28.68 33.61,-55.69 46.65,-81.04 14.54,-28.24 27.83,-53.17 39.88,-74.76 12.04,-21.59 23.87,-39.24 35.5,-52.95 11.63,-13.71 24.51,-22.22 38.63,-25.54 17.44,-4.15 31.56,-2.91 42.37,3.74 10.8,6.65 17.44,15.78 19.94,27.41 1.66,3.32 9.76,8.73 24.3,16.2 14.54,7.48 29.28,12.46 44.23,14.95 5.81,0.83 13.08,1.24 21.81,1.24 8.72,0 18.27,-1.45 28.65,-4.36 10.39,-2.91 21.39,-7.89 33.02,-14.95 11.63,-7.06 23.26,-17.24 34.89,-30.53 10.8,-12.46 22.63,-18.89 35.51,-19.31 12.87,-0.41 24.3,3.11 34.26,10.59 9.97,7.48 16.61,17.86 19.93,31.15 3.32,13.3 0.83,27.41 -7.47,42.36 -21.59,36.55 -48.59,70.81 -80.99,102.79 -32.4,31.98 -66.45,61.26 -102.17,87.84 -35.72,26.59 -70.41,50.46 -104.04,71.65 -33.64,21.18 -62.09,38.83 -85.35,52.95 14.95,-1.66 29.9,-0.83 44.86,2.49 14.95,3.33 29.49,9.56 43.61,18.69 11.63,8.31 23.67,14.95 36.13,19.94 12.46,4.98 23.67,7.47 33.64,7.47 26.58,0 58.98,-17.44 97.19,-52.33 38.21,-34.89 77.24,-83.48 117.12,-145.78 0.8,-1.26 1.63,-2.46 2.48,-3.61 6.56,-12.71 13.63,-25.63 21.2,-38.75 21.6,-37.38 44.86,-76.42 69.78,-117.12 29.07,-49 57.31,-97.6 84.73,-145.78 27.41,-48.18 46.51,-93.03 57.31,-134.56 3.33,-12.46 10.59,-22.22 21.8,-29.28 11.22,-7.06 23.05,-8.51 35.51,-4.36 12.46,3.32 22.01,10.38 28.65,21.18 6.65,10.8 8.31,22.43 4.99,34.89 -12.46,49.01 -33.23,99.47 -62.3,151.39 -29.07,51.91 -59.39,103.62 -90.96,155.12 -18.27,29.9 -36.76,60.64 -55.44,92.2 -18.69,31.56 -34.47,61.67 -47.35,90.33 -12.87,28.65 -21.18,53.78 -24.92,75.38 -3.73,21.59 0.21,37.37 11.83,47.35 4.15,2.49 11.01,5.4 20.56,8.72 9.55,3.32 24.71,-0.41 45.48,-11.22 22.43,-11.63 45.27,-29.07 68.53,-52.33 23.26,-23.26 44.44,-50.67 63.54,-82.24 19.11,-31.56 33.64,-62.09 43.61,-91.58 9.97,-29.48 14.12,-55.03 12.46,-76.63 0,-2.5 -0.2,-4.78 -0.62,-6.85 -0.41,-2.08 -0.62,-3.95 -0.62,-5.61 -9.97,-7.47 -19.11,-15.37 -27.42,-23.68 -8.3,-8.31 -15.78,-17.02 -22.43,-26.17 -5.81,-8.31 -8.72,-17.44 -8.72,-27.41 0,-9.96 3.32,-19.1 9.96,-27.41 6.65,-8.31 14.74,-13.91 24.3,-16.82 9.56,-2.91 19.31,-2.7 29.28,0.63 32.4,12.46 56.07,32.4 71.02,59.81 15.78,9.96 33.64,18.48 53.57,25.54 19.94,7.06 40.08,11.83 60.43,14.33 20.35,2.49 40.28,2.08 59.81,-1.25 5.88,-1 11.54,-2.3 17,-3.91l0.46 -0.46c27,-26.99 55.03,-49 84.1,-66.04 29.07,-17.03 57.94,-27.41 86.6,-31.15 28.65,-3.74 55.44,1.45 80.36,15.57 20.77,11.63 36.14,27.62 46.1,47.97 9.97,20.36 13.29,42.99 9.97,67.91 -1.67,19.93 -7.06,39.46 -16.2,58.56 -9.14,19.11 -20.56,36.96 -34.27,53.58 -13.7,16.61 -29.69,31.15 -47.96,43.61 -18.28,12.46 -37.8,22.01 -58.56,28.66 -9.14,2.49 -20.14,4.77 -33.02,6.85 -12.87,2.08 -26.79,2.5 -41.74,1.25 -14.96,-1.25 -30.53,-4.98 -46.73,-11.22 -16.19,-6.23 -33.02,-15.57 -50.46,-28.04 -8.31,16.61 -15.16,33.02 -20.56,49.22 -5.4,16.2 -8.93,31.36 -10.59,45.48 -1.66,14.13 -1.24,27.2 1.24,39.25 2.5,12.04 7.48,21.81 14.96,29.28 17.44,17.44 41.95,24.3 73.51,20.56 31.56,-3.73 65.62,-15.36 102.17,-34.89 36.55,-19.52 73.51,-45.48 110.89,-77.87 37.38,-32.4 71.02,-68.53 100.92,-108.41 7.48,-10.8 15.58,-17.65 24.3,-20.56 8.73,-2.91 15.78,-2.91 21.19,0 5.4,2.91 8.51,8.31 9.34,16.2 0.83,7.89 -2.9,17.24 -11.21,28.04 -61.47,83.9 -122.73,150.14 -183.78,198.74 -61.06,48.59 -118.16,75.37 -171.33,80.36 -4.98,0.83 -9.96,1.24 -14.95,1.24 -4.98,0 -9.97,0 -14.95,0 -48.18,0 -84.73,-11.21 -109.65,-33.64 -22.43,-20.77 -36.76,-44.85 -42.99,-72.27 -6.23,-27.41 -6.85,-56.27 -1.87,-86.59 4.99,-30.32 14.13,-60.43 27.41,-90.33 13.29,-29.91 28.66,-57.73 46.1,-83.48 3.84,-5.83 7.78,-11.58 11.82,-17.25 -2.9,0.39 -5.81,0.74 -8.72,1.06 -22.85,2.49 -44.23,3.11 -64.17,1.86 -19.93,-1.24 -34.89,-3.94 -44.85,-8.09 -2.49,34.06 -10.8,69.15 -24.92,105.28 -14.12,36.14 -31.98,70.81 -53.58,104.04 -21.59,33.23 -45.68,63.13 -72.26,89.71 -26.58,26.58 -53.99,46.93 -82.23,61.05 -27.41,14.12 -55.24,21.18 -83.48,21.18 -32.39,0 -60.63,-10.38 -84.72,-31.15 -30.9,-25.02 -46.73,-58.57 -47.52,-100.68 -13.48,18.82 -26.72,35.76 -39.72,50.84 -20.77,24.09 -41.33,42.78 -61.68,56.06 -20.35,13.3 -41.74,19.94 -64.17,19.94 -22.43,0 -43.19,-4.36 -62.3,-13.08 -19.1,-8.72 -36.96,-17.65 -53.57,-26.79 -12.46,-6.65 -24.71,-12.87 -36.76,-18.69 -12.04,-5.82 -22.22,-7.89 -30.52,-6.23 -3.32,1.66 -8.72,5.81 -16.2,12.46 -7.48,6.65 -16.2,19.52 -26.17,38.62 -4.98,9.14 -12.67,16.2 -23.05,21.19 -10.38,4.98 -20.14,5.81 -29.28,2.49 -12.46,-3.32 -22.22,-10.39 -29.28,-21.18 -7.06,-10.8 -8.93,-22.43 -5.6,-34.89 4.15,-18.27 13.08,-37.17 26.78,-56.69 13.7,-19.52 30.74,-39.87 51.09,-61.05 20.35,-21.18 43.4,-42.99 69.15,-65.41 25.74,-22.43 52.74,-45.69 80.98,-69.78 7.48,-6.65 17.86,-15.16 31.15,-25.54 13.29,-10.39 27.2,-21.39 41.74,-33.02 14.53,-11.63 28.24,-22.84 41.12,-33.64 12.87,-10.8 23.05,-19.52 30.52,-26.17 -30.73,9.97 -57.94,16.83 -81.61,20.56 -23.67,3.74 -44.23,4.98 -61.68,3.74 -17.44,-1.25 -31.57,-4.15 -42.36,-8.73 -10.8,-4.56 -18.28,-10.17 -22.43,-16.82l-82.23 137.06c-3.27,4.9 -6.74,9.09 -10.4,12.59l-0.82 1.11c-4.15,4.98 -11.63,17.03 -22.43,36.13 -10.8,19.11 -24.51,40.7 -41.11,64.79 -16.61,24.09 -35.3,48.8 -55.87,74.14 -20.76,25.33 -42.36,46.93 -65,64.79 -22.43,17.86 -45.69,29.7 -69.77,35.51 -24.09,5.81 -47.35,1.66 -69.78,-12.46 -9.13,-5.81 -18.06,-13.5 -26.78,-23.05 -8.73,-9.55 -15.57,-21.39 -20.56,-35.51 -3.42,-9.69 -5.57,-20.65 -6.44,-32.88 -21.14,29.04 -42.88,54.13 -65.2,75.24 -22.85,21.6 -44.65,32.4 -65.41,32.4 -24.92,0 -45.27,-7.48 -61.05,-22.43 -18.28,-15.78 -29.49,-33.85 -33.64,-54.2 -4.15,-20.35 -2.5,-44.03 4.98,-71.02 7.48,-26.99 19.94,-57.52 37.38,-91.58 17.45,-34.05 38.63,-72.26 63.55,-114.63 17.44,-29.07 26.99,-49.84 28.66,-62.3 1.66,-12.46 2.49,-19.1 2.49,-19.93 -1.66,-1.66 -7.27,-3.53 -16.82,-5.61 -9.55,-2.07 -27.62,-1.04 -54.2,3.11 -8.3,15.78 -17.02,31.98 -26.16,48.59 -9.14,16.61 -17.86,32.19 -26.17,46.73 -8.31,14.54 -16,27.62 -23.05,39.24 -7.06,11.63 -12.67,19.94 -16.82,24.92 -6.65,9.14 -14.13,15.16 -22.43,18.07 -8.31,2.91 -15.36,3.11 -21.18,0.63 -5.81,-2.5 -9.14,-7.27 -9.97,-14.33 -0.83,-7.06 2.5,-16.4 9.97,-28.04zm1735.68 -42.36c28.24,24.09 58.98,31.15 92.2,21.18 19.93,-5.81 37.37,-15.99 52.32,-30.53 14.96,-14.54 26.79,-29.69 35.51,-45.48 8.72,-15.78 13.7,-30.32 14.96,-43.61 1.24,-13.29 -2.29,-22.43 -10.59,-27.41 -7.48,-4.99 -18.48,-5.4 -33.02,-1.25 -14.54,4.15 -30.53,11.84 -47.97,23.05 -17.44,11.22 -35.3,25.75 -53.58,43.61 -18.27,17.86 -34.89,38.01 -49.83,60.43z"/>
   <path class="fil0" d="M612 230.54c17.44,-21.59 25.13,-40.49 23.05,-56.69 -2.08,-16.2 -13.5,-28.86 -34.27,-38 -15.78,-6.65 -32.39,-10.18 -49.83,-10.59 -17.44,-0.41 -34.89,1.24 -52.33,4.98 -17.45,3.74 -34.68,8.93 -51.71,15.57 -17.03,6.65 -32.6,13.71 -46.72,21.18 -46.52,23.26 -89.3,53.17 -128.33,89.71 -39.04,36.55 -72.69,76.84 -100.93,120.86 -16.61,26.58 -32.39,58.77 -47.34,96.56 -14.95,37.8 -24.92,76.21 -29.9,115.25 -4.98,39.04 -3.11,76.21 5.61,111.51 8.72,35.31 28.04,63.33 57.93,84.1 19.94,14.13 40.91,24.09 62.92,29.91 22.02,5.81 44.44,8.72 67.28,8.72 22.84,0 45.89,-2.7 69.15,-8.1 23.26,-5.4 45.69,-11.83 67.28,-19.31 29.07,-10.8 57.52,-25.33 85.35,-43.61 27.82,-18.27 51.7,-39.04 71.64,-62.3 5.81,-7.47 11.21,-15.57 16.2,-24.3 4.98,-8.72 9.76,-17.24 14.32,-25.54 4.57,-8.31 9.76,-16.2 15.57,-23.67 5.82,-7.47 12.87,-13.29 21.18,-17.44 15.78,-8.31 28.24,-9.96 37.38,-4.98 9.14,4.98 15.16,13.09 18.06,24.3 2.91,11.22 3.54,23.68 1.87,37.38 -1.67,13.7 -4.99,25.13 -9.97,34.26 -13.29,24.09 -29.69,46.72 -49.21,67.91 -19.52,21.18 -40.09,40.07 -61.68,56.69 -44.86,32.39 -94.49,58.15 -148.89,77.25 -54.41,19.1 -109.44,26.58 -165.09,22.43 -46.52,-3.33 -90.95,-15.78 -133.32,-37.38 -42.36,-21.6 -75.59,-53.17 -99.68,-94.69 -15.78,-27.41 -26.58,-56.48 -32.4,-87.22 -5.81,-30.74 -8.09,-61.68 -6.85,-92.83 1.25,-31.15 5.81,-62.3 13.7,-93.44 7.89,-31.15 18.07,-60.43 30.53,-87.84 24.09,-55.65 55.24,-106.94 93.45,-153.88 38.2,-46.93 81.41,-88.67 129.58,-125.22 21.59,-15.78 44.64,-31.36 69.15,-46.72 24.5,-15.37 50.04,-28.24 76.63,-38.63 26.58,-10.38 53.78,-18.07 81.61,-23.05 27.83,-4.98 55.86,-5.4 84.11,-1.24 27.41,4.15 52.12,12.87 74.13,26.16 22.01,13.29 39.67,29.7 52.96,49.22 13.29,19.52 21.39,41.54 24.3,66.04 2.91,24.51 -0.63,50.46 -10.59,77.88 -9.97,26.58 -25.13,51.5 -45.48,74.76 -20.35,23.26 -43.19,44.44 -68.53,63.54 -25.33,19.11 -52.12,35.51 -80.36,49.22 -28.24,13.71 -55.24,23.89 -81,30.53 -9.96,2.49 -19.93,2.7 -29.9,0.62 -9.97,-2.08 -18.9,-6.23 -26.79,-12.46 -7.89,-6.23 -14.12,-13.91 -18.69,-23.05 -4.56,-9.13 -6.85,-19.1 -6.85,-29.9 0,-13.29 3.53,-24.71 10.59,-34.26 7.06,-9.55 15.78,-17.86 26.17,-24.92 10.38,-7.06 21.6,-12.67 33.64,-16.82 12.05,-4.15 23.46,-7.89 34.27,-11.21 31.56,-9.14 59.39,-20.35 83.48,-33.64 24.09,-13.29 45.27,-31.15 63.55,-53.58z"/>
   <path class="fil3" d="M820.95 965.07c-5.17,3.44 -10.96,6.39 -17.39,8.84 -6.43,2.45 -12.85,3.81 -19.27,4.07 -6.43,0.26 -12.48,-0.86 -18.18,-3.38 -5.69,-2.52 -10.4,-7.09 -14.11,-13.71 -3.71,-6.63 -5.46,-13.65 -5.26,-21.06 0.2,-7.42 1.52,-14.83 3.97,-22.25 2.45,-7.42 5.63,-14.54 9.54,-21.36 3.91,-6.82 7.85,-12.95 11.82,-18.38 4.77,-6.49 10.3,-12.75 16.59,-18.78 6.29,-6.03 13.11,-11.13 20.46,-15.3 7.35,-4.17 15.13,-7.09 23.35,-8.74 8.21,-1.66 16.63,-1.43 25.24,0.69 2.38,0.67 4,2.25 4.87,4.77 0.86,2.52 0.56,4.77 -0.89,6.75 4.5,4.77 7.52,10.57 9.04,17.39 1.52,6.82 2.02,13.41 1.49,19.77 -0.67,7.81 -2.52,15.59 -5.56,23.35 -3.05,7.75 -6.89,15.17 -11.53,22.25 -4.63,7.09 -9.9,13.61 -15.8,19.57 -5.89,5.96 -12.02,11.13 -18.38,15.5zm-45.9 -11.13c4.64,3.18 9.74,4.57 15.3,4.17 5.56,-0.4 11.06,-1.82 16.49,-4.27 5.43,-2.45 10.56,-5.56 15.4,-9.34 4.83,-3.78 8.91,-7.45 12.22,-11.03 4.11,-4.5 7.95,-9.57 11.52,-15.2 3.57,-5.63 6.43,-11.52 8.54,-17.68 2.12,-6.16 3.31,-12.42 3.57,-18.78 0.27,-6.36 -0.79,-12.52 -3.18,-18.48 -1.59,-4.11 -3.41,-6.79 -5.46,-8.05 -2.05,-1.26 -4.2,-1.95 -6.46,-2.09 -1.46,-0.13 -3.01,-0.5 -4.67,-1.09 -1.66,-0.6 -3.01,-1.43 -4.07,-2.48 -12.05,3.44 -22.78,9.31 -32.19,17.58 -9.41,8.28 -17.22,17.85 -23.44,28.71 -1.06,1.99 -2.32,4.5 -3.78,7.55 -1.46,3.04 -2.78,6.39 -3.98,10.03 -1.19,3.64 -2.22,7.45 -3.08,11.43 -0.86,3.97 -1.22,7.78 -1.09,11.43 0.13,3.64 0.83,6.99 2.09,10.03 1.26,3.05 3.34,5.57 6.26,7.55z"/>
   <path id="_1" class="fil3" d="M929.04 950.96c-4.5,0 -8.35,-1.59 -11.52,-4.77 -5.43,-5.43 -6.43,-12.78 -2.98,-22.06 1.19,-3.31 2.78,-6.65 4.77,-10.03 1.99,-3.38 4.04,-6.79 6.16,-10.23 1.98,-3.18 3.91,-6.39 5.76,-9.64 1.85,-3.24 3.24,-6.19 4.17,-8.84 1.06,-2.65 1.39,-4.41 0.99,-5.26 -0.4,-0.86 -0.73,-1.43 -0.99,-1.69 -0.26,-0.27 -0.46,-0.43 -0.59,-0.5 -0.13,-0.07 -0.53,-0.04 -1.19,0.1 -1.99,0.4 -4.67,1.92 -8.05,4.57 -3.38,2.65 -7.39,6.69 -12.02,12.12 -4.64,5.43 -9.9,12.42 -15.8,20.96 -5.89,8.54 -12.35,18.84 -19.37,30.9 -1.06,1.85 -2.55,3.05 -4.47,3.57 -1.92,0.53 -3.74,0.27 -5.46,-0.8 -1.85,-0.93 -3.08,-2.35 -3.68,-4.27 -0.59,-1.92 -0.43,-3.81 0.5,-5.66l36.16 -71.53c0.93,-1.85 2.35,-3.05 4.27,-3.57 1.92,-0.53 3.81,-0.4 5.66,0.4 3.05,1.06 4.87,2.98 5.46,5.76 0.6,2.78 0.17,5.5 -1.29,8.15 5.04,-5.96 10.2,-10.07 15.5,-12.32 5.3,-2.25 9.93,-2.05 13.91,0.6 1.19,0.8 2.32,1.89 3.38,3.28 1.06,1.39 1.85,3.05 2.39,4.97 0.53,1.92 0.73,4.14 0.59,6.66 -0.13,2.52 -0.73,5.36 -1.79,8.54 -1.19,3.44 -2.85,6.99 -4.97,10.63 -2.12,3.64 -4.3,7.25 -6.56,10.83 -1.06,1.85 -2.32,4.01 -3.78,6.46 -1.46,2.45 -2.78,4.83 -3.97,7.15 -1.19,2.32 -2.06,4.41 -2.58,6.26 -0.53,1.85 -0.4,3.18 0.4,3.97 0.13,0.13 0.26,0.23 0.4,0.3 0.13,0.07 0.53,0.1 1.19,0.1 1.85,-0.13 4.21,-1.13 7.06,-2.98 2.85,-1.85 5.93,-4.3 9.24,-7.35 3.31,-3.05 6.69,-6.56 10.13,-10.53 3.44,-3.97 6.69,-8.21 9.73,-12.72 1.19,-1.72 2.48,-2.85 3.88,-3.38 1.39,-0.53 2.52,-0.56 3.37,-0.1 0.86,0.46 1.36,1.33 1.49,2.58 0.13,1.26 -0.4,2.75 -1.59,4.47 -0.4,0.66 -1.26,2.19 -2.58,4.57 -1.32,2.39 -2.98,5.17 -4.97,8.35 -1.98,3.18 -4.27,6.59 -6.85,10.23 -2.58,3.64 -5.36,6.99 -8.34,10.04 -2.98,3.04 -6.09,5.66 -9.34,7.85 -3.24,2.19 -6.52,3.41 -9.83,3.68 -0.4,0.13 -1.06,0.2 -1.99,0.2z"/>
   <path id="_2" class="fil3" d="M983.87 951.16c-7.15,0 -12.72,-1.99 -16.69,-5.96 -2.91,-2.65 -4.97,-6 -6.16,-10.04 -1.19,-4.04 -1.46,-8.57 -0.8,-13.61 0.53,-4.24 1.63,-8.61 3.28,-13.11 1.66,-4.5 3.87,-9.07 6.66,-13.71 3.05,-4.9 6.29,-9.41 9.74,-13.51 3.44,-4.11 7.09,-7.48 10.93,-10.13 5.96,-4.5 11.23,-6.92 15.8,-7.25 4.57,-0.33 8.31,0.04 11.22,1.09 6.22,2.25 10.07,6.62 11.52,13.11 0.93,3.57 0.86,7.28 -0.2,11.13 -1.06,3.84 -3.05,7.35 -5.96,10.53 -1.46,1.59 -3.18,2.45 -5.17,2.58 -1.98,0.13 -3.78,-0.53 -5.36,-1.99 -1.46,-1.46 -2.29,-3.18 -2.48,-5.17 -0.2,-1.99 0.43,-3.78 1.89,-5.37 1.06,-1.19 1.99,-2.48 2.78,-3.87 0.8,-1.39 1.32,-2.75 1.59,-4.07 0.26,-1.33 0.2,-2.52 -0.2,-3.58 -0.4,-1.06 -1.26,-1.85 -2.58,-2.38 -1.85,-0.67 -4.04,-0.4 -6.56,0.8 -2.52,1.19 -5.17,3.04 -7.95,5.56 -2.78,2.52 -5.59,5.53 -8.44,9.04 -2.85,3.51 -5.46,7.25 -7.85,11.22 -1.99,3.44 -3.65,6.79 -4.97,10.04 -1.32,3.24 -2.22,6.32 -2.68,9.24 -0.46,2.91 -0.53,5.5 -0.2,7.75 0.33,2.25 1.16,3.97 2.48,5.17 2.52,2.39 6.22,3.24 11.13,2.58 4.9,-0.66 10.23,-2.52 16,-5.56 5.76,-3.05 11.62,-7.09 17.58,-12.12 5.96,-5.03 11.33,-10.73 16.09,-17.09 1.19,-1.72 2.45,-2.78 3.78,-3.18 1.32,-0.4 2.42,-0.37 3.28,0.1 0.86,0.46 1.35,1.32 1.49,2.58 0.13,1.26 -0.4,2.75 -1.59,4.47 -4.77,6.36 -9.67,12.25 -14.7,17.68 -5.04,5.43 -10.17,10.13 -15.4,14.11 -5.23,3.98 -10.46,7.12 -15.7,9.44 -5.23,2.31 -10.43,3.48 -15.6,3.48z"/>
   <path id="_3" class="fil3" d="M1057.19 950.96c-7.68,0 -13.51,-1.79 -17.48,-5.36 -3.58,-3.31 -5.86,-7.15 -6.85,-11.52 -1,-4.37 -1.09,-8.98 -0.3,-13.81 0.8,-4.83 2.25,-9.64 4.37,-14.41 2.12,-4.77 4.57,-9.2 7.35,-13.31 3.31,-5.04 7.12,-9.7 11.42,-14.01 4.31,-4.3 8.78,-7.81 13.41,-10.53 4.63,-2.71 9.24,-4.37 13.81,-4.96 4.57,-0.6 8.84,0.23 12.81,2.48 3.31,1.85 5.76,4.41 7.35,7.65 1.59,3.25 2.12,6.85 1.59,10.83 -0.27,3.18 -1.13,6.29 -2.59,9.34 -1.46,3.05 -3.28,5.89 -5.46,8.54 -2.19,2.65 -4.74,4.97 -7.65,6.95 -2.92,1.99 -6.03,3.51 -9.34,4.57 -1.46,0.4 -3.21,0.76 -5.27,1.09 -2.05,0.33 -4.27,0.39 -6.65,0.2 -2.39,-0.2 -4.87,-0.8 -7.45,-1.79 -2.58,-1 -5.26,-2.48 -8.05,-4.47 -1.32,2.65 -2.42,5.27 -3.28,7.85 -0.86,2.58 -1.43,5 -1.69,7.25 -0.27,2.25 -0.2,4.34 0.2,6.26 0.4,1.92 1.19,3.48 2.39,4.67 2.78,2.78 6.69,3.88 11.72,3.28 5.04,-0.59 10.46,-2.45 16.29,-5.56 5.83,-3.11 11.72,-7.25 17.69,-12.42 5.96,-5.17 11.33,-10.93 16.09,-17.29 1.19,-1.72 2.48,-2.81 3.87,-3.28 1.39,-0.46 2.52,-0.46 3.38,0 0.86,0.46 1.36,1.32 1.49,2.58 0.13,1.26 -0.46,2.75 -1.79,4.47 -9.8,13.38 -19.57,23.94 -29.31,31.69 -9.74,7.75 -18.84,12.02 -27.32,12.81 -0.8,0.13 -1.59,0.2 -2.38,0.2 -0.8,0 -1.59,0 -2.39,0zm3.18 -55.24c4.5,3.84 9.41,4.97 14.7,3.38 3.18,-0.93 5.96,-2.55 8.35,-4.87 2.38,-2.32 4.27,-4.74 5.66,-7.25 1.39,-2.52 2.19,-4.83 2.38,-6.96 0.2,-2.12 -0.36,-3.57 -1.69,-4.37 -1.19,-0.8 -2.94,-0.86 -5.26,-0.2 -2.32,0.66 -4.87,1.89 -7.65,3.67 -2.78,1.79 -5.63,4.11 -8.54,6.96 -2.91,2.85 -5.56,6.06 -7.95,9.63z"/>
   <path id="_4" class="fil3" d="M1165.53 948.18c-1.46,-0.93 -2.88,-2.15 -4.27,-3.68 -1.39,-1.52 -2.48,-3.41 -3.28,-5.66 -0.8,-2.25 -1.16,-4.94 -1.09,-8.05 0.07,-3.11 0.76,-6.72 2.09,-10.83 1.46,-4.5 3.51,-9.14 6.16,-13.91 2.65,-4.77 5.23,-9.34 7.75,-13.71 1.85,-2.91 3.71,-6.02 5.56,-9.34 1.85,-3.31 2.85,-5.63 2.98,-6.95 0,-2.12 0.73,-3.91 2.15,-5.36 1.46,-1.46 3.15,-2.19 5.1,-2.19 2.09,0 3.87,0.7 5.3,2.09 1.43,1.39 2.22,3.15 2.35,5.27 0,2.91 -0.93,6.22 -2.75,9.93 -1.82,3.71 -4.44,8.48 -7.85,14.31 -1.56,2.78 -3.41,5.99 -5.5,9.63 -2.12,3.65 -3.94,7.19 -5.46,10.63 -1.52,3.44 -2.52,6.59 -2.98,9.44 -0.46,2.85 0.1,4.74 1.69,5.67 0.27,0.13 0.76,0.2 1.49,0.2 0.73,0 1.69,-0.26 2.88,-0.8 1.19,-0.53 2.68,-1.39 4.44,-2.58 1.79,-1.19 3.84,-2.85 6.19,-4.96 2.35,-2.12 4.63,-4.41 6.89,-6.85 2.22,-2.45 4.31,-4.84 6.23,-7.15 1.92,-2.32 3.61,-4.41 5.06,-6.26 1.46,-1.85 2.59,-3.38 3.38,-4.57 1.19,-1.59 2.42,-2.58 3.68,-2.98 1.26,-0.4 2.35,-0.36 3.28,0.1 0.93,0.46 1.49,1.3 1.69,2.48 0.2,1.19 -0.3,2.58 -1.49,4.17 -0.66,0.8 -1.85,2.72 -3.57,5.76 -1.72,3.05 -3.91,6.49 -6.56,10.33 -2.65,3.84 -5.63,7.78 -8.91,11.82 -3.31,4.04 -6.76,7.48 -10.37,10.33 -3.57,2.85 -7.28,4.74 -11.13,5.66 -3.84,0.93 -7.55,0.27 -11.13,-1.98zm44.5 -96.56c0,2.65 -0.89,4.87 -2.68,6.65 -1.79,1.79 -4.01,2.69 -6.66,2.69 -2.65,0 -4.87,-0.89 -6.65,-2.69 -1.79,-1.79 -2.68,-4 -2.68,-6.65 0,-2.65 0.89,-4.87 2.68,-6.66 1.79,-1.79 4.01,-2.68 6.65,-2.68 2.65,0 4.87,0.89 6.66,2.68 1.79,1.79 2.68,4.01 2.68,6.66z"/>
   <path id="_5" class="fil3" d="M1255.54 950.96c-4.5,0 -8.35,-1.59 -11.52,-4.77 -5.43,-5.43 -6.43,-12.78 -2.98,-22.06 1.19,-3.31 2.78,-6.65 4.77,-10.03 1.99,-3.38 4.04,-6.79 6.16,-10.23 1.98,-3.18 3.91,-6.39 5.76,-9.64 1.85,-3.24 3.24,-6.19 4.17,-8.84 1.06,-2.65 1.39,-4.41 0.99,-5.26 -0.4,-0.86 -0.73,-1.43 -0.99,-1.69 -0.26,-0.27 -0.46,-0.43 -0.59,-0.5 -0.13,-0.07 -0.53,-0.04 -1.19,0.1 -1.99,0.4 -4.67,1.92 -8.05,4.57 -3.38,2.65 -7.39,6.69 -12.02,12.12 -4.64,5.43 -9.9,12.42 -15.8,20.96 -5.89,8.54 -12.35,18.84 -19.37,30.9 -1.06,1.85 -2.55,3.05 -4.47,3.57 -1.92,0.53 -3.74,0.27 -5.46,-0.8 -1.85,-0.93 -3.08,-2.35 -3.68,-4.27 -0.59,-1.92 -0.43,-3.81 0.5,-5.66l36.16 -71.53c0.93,-1.85 2.35,-3.05 4.27,-3.57 1.92,-0.53 3.81,-0.4 5.66,0.4 3.05,1.06 4.87,2.98 5.46,5.76 0.6,2.78 0.17,5.5 -1.29,8.15 5.04,-5.96 10.2,-10.07 15.5,-12.32 5.3,-2.25 9.93,-2.05 13.91,0.6 1.19,0.8 2.32,1.89 3.38,3.28 1.06,1.39 1.85,3.05 2.39,4.97 0.53,1.92 0.73,4.14 0.59,6.66 -0.13,2.52 -0.73,5.36 -1.79,8.54 -1.19,3.44 -2.85,6.99 -4.97,10.63 -2.12,3.64 -4.3,7.25 -6.56,10.83 -1.06,1.85 -2.32,4.01 -3.78,6.46 -1.46,2.45 -2.78,4.83 -3.97,7.15 -1.19,2.32 -2.06,4.41 -2.58,6.26 -0.53,1.85 -0.4,3.18 0.4,3.97 0.13,0.13 0.26,0.23 0.4,0.3 0.13,0.07 0.53,0.1 1.19,0.1 1.85,-0.13 4.21,-1.13 7.06,-2.98 2.85,-1.85 5.93,-4.3 9.24,-7.35 3.31,-3.05 6.69,-6.56 10.13,-10.53 3.44,-3.97 6.69,-8.21 9.73,-12.72 1.19,-1.72 2.48,-2.85 3.88,-3.38 1.39,-0.53 2.52,-0.56 3.37,-0.1 0.86,0.46 1.36,1.33 1.49,2.58 0.13,1.26 -0.4,2.75 -1.59,4.47 -0.4,0.66 -1.26,2.19 -2.58,4.57 -1.32,2.39 -2.98,5.17 -4.97,8.35 -1.98,3.18 -4.27,6.59 -6.85,10.23 -2.58,3.64 -5.36,6.99 -8.34,10.04 -2.98,3.04 -6.09,5.66 -9.34,7.85 -3.24,2.19 -6.52,3.41 -9.83,3.68 -0.4,0.13 -1.06,0.2 -1.99,0.2z"/>
   <path id="_6" class="fil3" d="M1357.92 950.76c-3.31,0 -6.22,-0.73 -8.74,-2.19 -3.44,-1.85 -6.06,-4.47 -7.85,-7.85 -1.79,-3.38 -2.61,-7.25 -2.48,-11.62 0.13,-5.17 1.52,-10.8 4.17,-16.89 2.65,-6.09 6.09,-12.02 10.33,-17.78 4.24,-5.76 9.11,-11.09 14.6,-15.99 5.5,-4.9 11.16,-8.74 16.99,-11.52 6.62,-3.18 12.95,-4.64 18.97,-4.37 6.03,0.27 11.36,2.19 16,5.76 1.72,1.32 2.72,2.78 2.98,4.37 0.26,1.59 0.07,2.91 -0.59,3.98 -0.67,1.06 -1.72,1.75 -3.18,2.08 -1.46,0.33 -3.05,-0.17 -4.77,-1.49 -5.04,-3.84 -11.52,-3.78 -19.47,0.2 -4.9,2.39 -9.77,5.76 -14.6,10.13 -4.83,4.37 -9.2,9.07 -13.11,14.11 -3.91,5.04 -7.09,10.04 -9.54,15 -2.45,4.96 -3.74,9.17 -3.87,12.61 -0.13,2.25 0.13,3.78 0.79,4.57 0.67,0.8 1.26,1.32 1.79,1.59 1.59,0.93 3.94,0.53 7.05,-1.19 3.11,-1.72 6.62,-4.5 10.53,-8.35 3.91,-3.84 8.08,-8.64 12.52,-14.4 4.44,-5.76 8.78,-12.35 13.02,-19.77 0.26,-0.53 0.5,-0.96 0.7,-1.29 0.2,-0.33 0.43,-0.7 0.69,-1.09 1.06,-1.85 2.55,-3.04 4.47,-3.57 1.92,-0.53 3.81,-0.26 5.66,0.8 1.85,1.06 3.05,2.55 3.57,4.47 0.53,1.92 0.27,3.81 -0.79,5.67 -0.53,0.8 -0.93,1.52 -1.19,2.19 -3.44,5.96 -6,11.16 -7.65,15.6 -1.66,4.44 -2.75,8.15 -3.28,11.13 -0.53,2.98 -0.66,5.3 -0.4,6.95 0.26,1.66 0.66,2.61 1.19,2.88 0.66,0.4 2.15,0.1 4.47,-0.89 2.32,-1 5.4,-3.41 9.24,-7.25 3.84,-3.58 7.55,-7.65 11.13,-12.22 3.58,-4.57 6.76,-8.78 9.54,-12.62 0.93,-1.46 2.02,-2.35 3.28,-2.68 1.26,-0.33 2.35,-0.26 3.28,0.2 0.93,0.46 1.49,1.26 1.69,2.39 0.2,1.13 -0.17,2.42 -1.09,3.87 -1.06,1.33 -2.32,3.35 -3.78,6.06 -1.46,2.72 -3.18,5.73 -5.17,9.04 -1.99,3.31 -4.17,6.72 -6.56,10.23 -2.38,3.51 -4.9,6.69 -7.55,9.54 -2.65,2.85 -5.46,5.17 -8.44,6.95 -2.98,1.79 -6.06,2.69 -9.24,2.69 -2.65,0 -5.5,-0.86 -8.54,-2.58 -0.8,-0.4 -1.62,-1.29 -2.48,-2.69 -0.86,-1.39 -1.62,-3.08 -2.28,-5.07 -0.67,-1.98 -1.09,-4.27 -1.29,-6.85 -0.2,-2.58 0.03,-5.4 0.69,-8.44 -1.59,2.78 -3.51,5.66 -5.76,8.64 -2.25,2.98 -4.77,5.73 -7.55,8.24 -2.78,2.52 -5.7,4.6 -8.74,6.26 -3.05,1.65 -6.16,2.48 -9.34,2.48z"/>
   <path id="_7" class="fil3" d="M1487.33 948.18c-4.24,-2.25 -6.82,-5.43 -7.75,-9.54 -0.8,-2.78 -0.86,-5.8 -0.2,-9.04 0.66,-3.24 1.82,-6.62 3.48,-10.13 1.66,-3.51 3.65,-7.19 5.96,-11.03 2.32,-3.84 4.8,-7.88 7.45,-12.12 3.31,-5.04 6.39,-10.04 9.24,-15 2.85,-4.97 4.73,-9.17 5.66,-12.62 0.53,-1.99 1.65,-3.51 3.38,-4.57 1.72,-1.06 3.57,-1.32 5.56,-0.8 2.12,0.53 3.71,1.66 4.77,3.38 1.06,1.72 1.33,3.58 0.8,5.56 -1.19,4.64 -3.35,9.67 -6.46,15.1 -3.11,5.43 -6.52,11.06 -10.23,16.89 -2.25,3.58 -4.47,7.15 -6.66,10.73 -2.19,3.57 -4.01,6.89 -5.46,9.93 -1.85,3.57 -2.81,6.06 -2.88,7.45 -0.07,1.39 -0.1,2.22 -0.1,2.48 0.13,0 0.27,0.07 0.4,0.2 0.26,0 0.86,-0.1 1.79,-0.3 0.93,-0.2 2.19,-0.69 3.78,-1.49 1.59,-0.8 3.51,-2.02 5.76,-3.68 2.25,-1.66 4.83,-3.87 7.75,-6.66 4.11,-3.84 8.21,-8.38 12.32,-13.61 4.11,-5.23 7.88,-10.76 11.33,-16.59 2.25,-3.71 4.07,-6.89 5.46,-9.54 1.39,-2.65 2.52,-4.87 3.38,-6.66 0.86,-1.79 1.49,-3.28 1.89,-4.47 0.4,-1.19 0.73,-2.32 0.99,-3.38 0.53,-1.99 1.69,-3.51 3.48,-4.57 1.79,-1.06 3.68,-1.32 5.67,-0.8 1.98,0.53 3.51,1.66 4.57,3.38 1.06,1.72 1.33,3.58 0.8,5.56 -1.06,4.64 -2.98,9.5 -5.76,14.61 -2.78,5.1 -5.89,10.43 -9.34,15.99 -1.99,3.44 -3.94,6.85 -5.86,10.23 -1.92,3.38 -3.61,6.59 -5.07,9.64 -1.72,3.71 -2.65,6.36 -2.78,7.95 -0.13,1.59 -0.2,2.52 -0.2,2.78 0.13,0.13 0.2,0.23 0.2,0.3 0,0.07 0.13,0.17 0.39,0.3 0.93,0.39 2.78,0.13 5.57,-0.8 2.78,-0.93 6.35,-3.11 10.73,-6.56 4.24,-3.44 8.48,-7.52 12.72,-12.22 4.24,-4.7 7.88,-9.57 10.93,-14.61 2.52,-3.97 4.34,-7.48 5.46,-10.53 1.13,-3.04 1.82,-5.56 2.09,-7.55 -1.99,-2.91 -3.38,-6.23 -4.17,-9.94 -0.4,-3.31 0.73,-5.83 3.38,-7.55 1.33,-0.8 2.75,-1.19 4.27,-1.19 1.52,0 2.88,0.46 4.07,1.39 3.97,2.78 6.36,6.62 7.15,11.52 1.32,1.19 2.91,2.12 4.77,2.78 3.84,1.72 8.15,2.31 12.91,1.79 4.77,-0.53 8.94,-2.12 12.52,-4.77 1.32,-0.93 2.55,-1.26 3.67,-1 1.13,0.27 1.89,0.86 2.29,1.79 0.4,0.93 0.43,2.02 0.1,3.28 -0.33,1.26 -1.16,2.35 -2.48,3.28 -3.18,2.25 -6.49,4.01 -9.93,5.26 -3.44,1.26 -6.76,2.12 -9.94,2.58 -3.18,0.46 -6.13,0.56 -8.84,0.3 -2.72,-0.26 -4.94,-0.8 -6.66,-1.59 -0.8,2.39 -1.89,5.3 -3.28,8.74 -1.39,3.44 -2.94,6.49 -4.67,9.14 -3.57,5.83 -7.75,11.43 -12.52,16.79 -4.77,5.36 -9.6,10.03 -14.5,14.01 -5.17,4.11 -9.77,6.92 -13.81,8.44 -4.04,1.52 -7.52,2.28 -10.43,2.28 -1.85,0 -3.44,-0.17 -4.77,-0.5 -1.33,-0.33 -2.52,-0.83 -3.58,-1.49 -4.11,-2.25 -6.76,-5.5 -7.95,-9.74 -0.39,-1.19 -0.59,-2.58 -0.59,-4.17 -6.62,7.02 -12.68,11.76 -18.18,14.2 -5.5,2.45 -10.1,2.68 -13.81,0.7z"/>
   <path id="_8" class="fil3" d="M1638.92 946.19c-5.43,-5.43 -6.42,-12.78 -2.98,-22.06 1.19,-3.31 2.78,-6.65 4.77,-10.03 1.98,-3.38 4.04,-6.79 6.16,-10.23 1.99,-3.18 3.91,-6.39 5.76,-9.64 1.85,-3.24 3.24,-6.19 4.17,-8.84 1.06,-2.65 1.39,-4.41 1,-5.26 -0.4,-0.86 -0.73,-1.43 -1,-1.69 -0.13,-0.13 -0.33,-0.27 -0.59,-0.4 -0.26,-0.13 -0.73,-0.13 -1.39,0 -2.78,0.53 -6.26,2.48 -10.43,5.86 -4.17,3.38 -8.68,7.81 -13.51,13.31 -4.83,5.5 -9.9,11.89 -15.2,19.17 -5.3,7.28 -10.46,15.1 -15.5,23.44l-4.57 7.35c-1.06,1.85 -2.55,3.02 -4.47,3.48 -1.92,0.46 -3.81,0.17 -5.66,-0.9 -1.85,-1.06 -3.02,-2.55 -3.48,-4.47 -0.46,-1.92 -0.17,-3.81 0.89,-5.66l4.17 -7.15c2.78,-4.64 5.93,-10 9.44,-16.09 3.51,-6.09 7.15,-12.42 10.93,-18.98 3.78,-6.56 7.48,-13.18 11.13,-19.87 3.65,-6.69 6.99,-12.98 10.04,-18.88 3.05,-5.89 5.63,-11.13 7.75,-15.7 2.12,-4.57 3.51,-8.11 4.17,-10.63 0.53,-1.98 1.69,-3.54 3.48,-4.67 1.79,-1.13 3.68,-1.35 5.67,-0.69 1.98,0.53 3.51,1.65 4.57,3.38 1.06,1.72 1.26,3.57 0.6,5.56 -0.4,1.59 -1.36,4.14 -2.88,7.65 -1.52,3.51 -3.31,7.38 -5.37,11.62 -2.05,4.24 -4.2,8.58 -6.46,13.02 -2.25,4.44 -4.3,8.38 -6.16,11.82 2.65,-3.31 5.43,-6.13 8.34,-8.44 2.91,-2.32 5.8,-4.07 8.65,-5.27 2.85,-1.19 5.59,-1.76 8.24,-1.69 2.65,0.07 5.03,0.83 7.15,2.29 1.19,0.8 2.32,1.89 3.38,3.28 1.06,1.39 1.85,3.05 2.38,4.97 0.53,1.92 0.73,4.14 0.6,6.66 -0.13,2.52 -0.73,5.36 -1.79,8.54 -1.19,3.44 -2.81,6.99 -4.87,10.63 -2.05,3.64 -4.2,7.25 -6.46,10.83 -1.19,1.85 -2.52,4.01 -3.97,6.46 -1.46,2.45 -2.78,4.83 -3.98,7.15 -1.19,2.32 -2.05,4.41 -2.58,6.26 -0.53,1.85 -0.4,3.18 0.4,3.97 1.33,1.33 3.54,1.03 6.66,-0.89 3.11,-1.92 6.56,-4.63 10.33,-8.15 3.78,-3.51 7.52,-7.48 11.22,-11.92 3.71,-4.44 6.89,-8.51 9.54,-12.22 1.19,-1.59 2.45,-2.58 3.78,-2.98 1.32,-0.4 2.42,-0.4 3.28,0 0.86,0.4 1.39,1.19 1.59,2.39 0.2,1.19 -0.23,2.58 -1.29,4.17 -0.53,0.66 -1.46,2.15 -2.78,4.47 -1.33,2.32 -2.98,5 -4.97,8.05 -1.99,3.05 -4.27,6.33 -6.85,9.83 -2.58,3.51 -5.37,6.82 -8.35,9.94 -2.98,3.11 -6.09,5.8 -9.34,8.04 -3.24,2.25 -6.52,3.71 -9.83,4.37 -2.39,0.53 -4.83,0.3 -7.35,-0.7 -2.52,-0.99 -4.57,-2.28 -6.16,-3.87z"/>
   <path id="_9" class="fil3" d="M1685.61 948.18c-1.46,-0.93 -2.88,-2.15 -4.27,-3.68 -1.39,-1.52 -2.48,-3.41 -3.28,-5.66 -0.8,-2.25 -1.16,-4.94 -1.09,-8.05 0.07,-3.11 0.76,-6.72 2.09,-10.83 1.46,-4.5 3.51,-9.14 6.16,-13.91 2.65,-4.77 5.23,-9.34 7.75,-13.71 1.85,-2.91 3.71,-6.02 5.56,-9.34 1.85,-3.31 2.85,-5.63 2.98,-6.95 0,-2.12 0.73,-3.91 2.15,-5.36 1.46,-1.46 3.15,-2.19 5.1,-2.19 2.09,0 3.87,0.7 5.3,2.09 1.43,1.39 2.22,3.15 2.35,5.27 0,2.91 -0.93,6.22 -2.75,9.93 -1.82,3.71 -4.44,8.48 -7.85,14.31 -1.56,2.78 -3.41,5.99 -5.5,9.63 -2.12,3.65 -3.94,7.19 -5.46,10.63 -1.52,3.44 -2.52,6.59 -2.98,9.44 -0.46,2.85 0.1,4.74 1.69,5.67 0.27,0.13 0.76,0.2 1.49,0.2 0.73,0 1.69,-0.26 2.88,-0.8 1.19,-0.53 2.68,-1.39 4.44,-2.58 1.79,-1.19 3.84,-2.85 6.19,-4.96 2.35,-2.12 4.63,-4.41 6.89,-6.85 2.22,-2.45 4.31,-4.84 6.23,-7.15 1.92,-2.32 3.61,-4.41 5.06,-6.26 1.46,-1.85 2.59,-3.38 3.38,-4.57 1.19,-1.59 2.42,-2.58 3.68,-2.98 1.26,-0.4 2.35,-0.36 3.28,0.1 0.93,0.46 1.49,1.3 1.69,2.48 0.2,1.19 -0.3,2.58 -1.49,4.17 -0.66,0.8 -1.85,2.72 -3.57,5.76 -1.72,3.05 -3.91,6.49 -6.56,10.33 -2.65,3.84 -5.63,7.78 -8.91,11.82 -3.31,4.04 -6.76,7.48 -10.37,10.33 -3.57,2.85 -7.28,4.74 -11.13,5.66 -3.84,0.93 -7.55,0.27 -11.13,-1.98zm44.5 -96.56c0,2.65 -0.89,4.87 -2.68,6.65 -1.79,1.79 -4.01,2.69 -6.66,2.69 -2.65,0 -4.87,-0.89 -6.65,-2.69 -1.79,-1.79 -2.68,-4 -2.68,-6.65 0,-2.65 0.89,-4.87 2.68,-6.66 1.79,-1.79 4.01,-2.68 6.65,-2.68 2.65,0 4.87,0.89 6.66,2.68 1.79,1.79 2.68,4.01 2.68,6.66z"/>
   <path id="_10" class="fil3" d="M1737.47 950.76c-1.59,0 -3.08,-0.23 -4.47,-0.7 -1.39,-0.46 -2.81,-1.09 -4.27,-1.89 -1.33,-0.8 -2.58,-1.85 -3.78,-3.18 -1.19,-1.32 -2.12,-3.05 -2.78,-5.17 -0.66,-2.12 -1.02,-4.6 -1.09,-7.45 -0.07,-2.85 0.43,-6.26 1.49,-10.24 2.52,-9.27 8.35,-21.72 17.48,-37.35 1.46,-2.52 2.98,-5.04 4.57,-7.55 1.59,-2.52 3.18,-5.04 4.77,-7.55 1.99,-3.31 4.04,-6.69 6.16,-10.13 2.12,-3.44 4.04,-6.79 5.76,-10.03 1.72,-3.24 3.21,-6.29 4.47,-9.14 1.26,-2.85 2.02,-5.33 2.28,-7.45 0.27,-1.99 1.22,-3.58 2.88,-4.77 1.66,-1.19 3.54,-1.66 5.66,-1.39 1.99,0.27 3.61,1.23 4.87,2.88 1.26,1.66 1.76,3.48 1.49,5.46 -0.93,5.96 -3.41,12.55 -7.45,19.77 -4.04,7.22 -8.58,14.8 -13.61,22.75 -1.46,2.38 -2.98,4.83 -4.57,7.35 -1.59,2.52 -3.11,4.97 -4.57,7.35 -4.24,7.15 -7.65,13.55 -10.23,19.18 -2.58,5.63 -4.47,10.5 -5.66,14.6 -0.93,3.44 -1.29,5.83 -1.09,7.15 0.2,1.32 0.43,2.05 0.7,2.19 0.26,0.13 0.76,0.2 1.49,0.2 0.73,0 1.72,-0.26 2.98,-0.8 1.26,-0.53 2.78,-1.39 4.57,-2.58 1.79,-1.19 3.87,-2.85 6.26,-4.96 2.39,-2.12 4.7,-4.41 6.95,-6.85 2.25,-2.45 4.31,-4.84 6.16,-7.15 1.85,-2.32 3.51,-4.41 4.96,-6.26 1.46,-1.85 2.59,-3.38 3.38,-4.57 1.06,-1.59 2.25,-2.55 3.58,-2.88 1.32,-0.33 2.42,-0.26 3.28,0.2 0.86,0.46 1.39,1.26 1.59,2.39 0.2,1.13 -0.23,2.48 -1.29,4.07 -0.66,0.8 -1.76,2.45 -3.28,4.97 -1.52,2.52 -3.41,5.43 -5.67,8.74 -2.25,3.31 -4.77,6.79 -7.55,10.43 -2.78,3.64 -5.66,6.95 -8.64,9.93 -2.98,2.98 -5.99,5.46 -9.04,7.45 -3.05,1.98 -5.96,2.98 -8.74,2.98z"/>
   <path id="_11" class="fil3" d="M1792.11 950.96c-7.68,0 -13.51,-1.79 -17.48,-5.36 -3.58,-3.31 -5.86,-7.15 -6.85,-11.52 -1,-4.37 -1.09,-8.98 -0.3,-13.81 0.8,-4.83 2.25,-9.64 4.37,-14.41 2.12,-4.77 4.57,-9.2 7.35,-13.31 3.31,-5.04 7.12,-9.7 11.42,-14.01 4.31,-4.3 8.78,-7.81 13.41,-10.53 4.63,-2.71 9.24,-4.37 13.81,-4.96 4.57,-0.6 8.84,0.23 12.81,2.48 3.31,1.85 5.76,4.41 7.35,7.65 1.59,3.25 2.12,6.85 1.59,10.83 -0.27,3.18 -1.13,6.29 -2.59,9.34 -1.46,3.05 -3.28,5.89 -5.46,8.54 -2.19,2.65 -4.74,4.97 -7.65,6.95 -2.92,1.99 -6.03,3.51 -9.34,4.57 -1.46,0.4 -3.21,0.76 -5.27,1.09 -2.05,0.33 -4.27,0.39 -6.65,0.2 -2.39,-0.2 -4.87,-0.8 -7.45,-1.79 -2.58,-1 -5.26,-2.48 -8.05,-4.47 -1.32,2.65 -2.42,5.27 -3.28,7.85 -0.86,2.58 -1.43,5 -1.69,7.25 -0.27,2.25 -0.2,4.34 0.2,6.26 0.4,1.92 1.19,3.48 2.39,4.67 2.78,2.78 6.69,3.88 11.72,3.28 5.04,-0.59 10.46,-2.45 16.29,-5.56 5.83,-3.11 11.72,-7.25 17.69,-12.42 5.96,-5.17 11.33,-10.93 16.09,-17.29 1.19,-1.72 2.48,-2.81 3.87,-3.28 1.39,-0.46 2.52,-0.46 3.38,0 0.86,0.46 1.36,1.32 1.49,2.58 0.13,1.26 -0.46,2.75 -1.79,4.47 -9.8,13.38 -19.57,23.94 -29.31,31.69 -9.74,7.75 -18.84,12.02 -27.32,12.81 -0.8,0.13 -1.59,0.2 -2.38,0.2 -0.8,0 -1.59,0 -2.39,0zm3.18 -55.24c4.5,3.84 9.41,4.97 14.7,3.38 3.18,-0.93 5.96,-2.55 8.35,-4.87 2.38,-2.32 4.27,-4.74 5.66,-7.25 1.39,-2.52 2.19,-4.83 2.38,-6.96 0.2,-2.12 -0.36,-3.57 -1.69,-4.37 -1.19,-0.8 -2.94,-0.86 -5.26,-0.2 -2.32,0.66 -4.87,1.89 -7.65,3.67 -2.78,1.79 -5.63,4.11 -8.54,6.96 -2.91,2.85 -5.56,6.06 -7.95,9.63z"/>
   <path id="_12" class="fil3" d="M1909.19 950.76c-1.59,0 -3.08,-0.23 -4.47,-0.7 -1.39,-0.46 -2.81,-1.09 -4.27,-1.89 -1.33,-0.8 -2.58,-1.85 -3.78,-3.18 -1.19,-1.32 -2.12,-3.05 -2.78,-5.17 -0.66,-2.12 -1.02,-4.6 -1.09,-7.45 -0.07,-2.85 0.43,-6.26 1.49,-10.24 2.52,-9.27 8.35,-21.72 17.48,-37.35 1.46,-2.52 2.98,-5.04 4.57,-7.55 1.59,-2.52 3.18,-5.04 4.77,-7.55 1.99,-3.31 4.04,-6.69 6.16,-10.13 2.12,-3.44 4.04,-6.79 5.76,-10.03 1.72,-3.24 3.21,-6.29 4.47,-9.14 1.26,-2.85 2.02,-5.33 2.28,-7.45 0.27,-1.99 1.22,-3.58 2.88,-4.77 1.66,-1.19 3.54,-1.66 5.66,-1.39 1.99,0.27 3.61,1.23 4.87,2.88 1.26,1.66 1.76,3.48 1.49,5.46 -0.93,5.96 -3.41,12.55 -7.45,19.77 -4.04,7.22 -8.58,14.8 -13.61,22.75 -1.46,2.38 -2.98,4.83 -4.57,7.35 -1.59,2.52 -3.11,4.97 -4.57,7.35 -4.24,7.15 -7.65,13.55 -10.23,19.18 -2.58,5.63 -4.47,10.5 -5.66,14.6 -0.93,3.44 -1.29,5.83 -1.09,7.15 0.2,1.32 0.43,2.05 0.7,2.19 0.26,0.13 0.76,0.2 1.49,0.2 0.73,0 1.72,-0.26 2.98,-0.8 1.26,-0.53 2.78,-1.39 4.57,-2.58 1.79,-1.19 3.87,-2.85 6.26,-4.96 2.39,-2.12 4.7,-4.41 6.95,-6.85 2.25,-2.45 4.31,-4.84 6.16,-7.15 1.85,-2.32 3.51,-4.41 4.96,-6.26 1.46,-1.85 2.59,-3.38 3.38,-4.57 1.06,-1.59 2.25,-2.55 3.58,-2.88 1.32,-0.33 2.42,-0.26 3.28,0.2 0.86,0.46 1.39,1.26 1.59,2.39 0.2,1.13 -0.23,2.48 -1.29,4.07 -0.66,0.8 -1.76,2.45 -3.28,4.97 -1.52,2.52 -3.41,5.43 -5.67,8.74 -2.25,3.31 -4.77,6.79 -7.55,10.43 -2.78,3.64 -5.66,6.95 -8.64,9.93 -2.98,2.98 -5.99,5.46 -9.04,7.45 -3.05,1.98 -5.96,2.98 -8.74,2.98z"/>
   <path id="_13" class="fil3" d="M1945.95 949.37c-1.85,0 -3.81,-0.39 -5.86,-1.19 -2.05,-0.8 -3.61,-1.66 -4.67,-2.58 -2.65,-2.39 -4.14,-5.1 -4.47,-8.15 -0.33,-3.04 -0.13,-6.06 0.59,-9.04 0.73,-2.98 1.76,-5.76 3.08,-8.34 1.33,-2.58 2.39,-4.61 3.18,-6.06 2.91,-5.03 6.32,-10.23 10.23,-15.59 3.91,-5.37 7.58,-10.3 11.03,-14.8 2.25,-2.78 4.44,-5.66 6.56,-8.64 2.12,-2.98 3.44,-5 3.97,-6.06 0.4,-1.85 1.39,-3.34 2.98,-4.47 1.59,-1.13 3.31,-1.56 5.17,-1.29 2.12,0.26 3.81,1.19 5.06,2.78 1.26,1.59 1.76,3.44 1.49,5.56 -0.13,1.06 -0.46,2.15 -0.99,3.28 -0.53,1.13 -1.29,2.48 -2.29,4.07 -0.99,1.59 -2.31,3.48 -3.97,5.66 -1.66,2.19 -3.68,4.87 -6.06,8.05 -3.05,3.84 -6.26,8.08 -9.64,12.72 -3.38,4.63 -6.39,9.07 -9.04,13.31 -3.18,5.3 -5.1,9.11 -5.76,11.43 -0.66,2.32 -0.99,3.81 -0.99,4.47l0.99 0c2.25,-0.26 5.43,-1.69 9.54,-4.27 4.11,-2.58 9.04,-6.62 14.8,-12.12 5.76,-5.5 12.35,-12.55 19.77,-21.16 7.42,-8.61 15.7,-19.07 24.83,-31.39 0.13,-0.13 0.27,-0.2 0.4,-0.2 1.19,-1.46 2.75,-2.32 4.67,-2.58 1.92,-0.26 3.68,0.13 5.27,1.19 1.72,1.19 2.75,2.81 3.08,4.87 0.33,2.06 -0.1,3.94 -1.29,5.66 -12.85,17.49 -21.72,32.26 -26.63,44.31 -2.25,5.83 -3.41,10 -3.48,12.52 -0.07,2.52 0.03,3.97 0.3,4.37 0.53,0.27 2.02,0 4.47,-0.8 2.45,-0.79 6.06,-3.31 10.83,-7.55 2.38,-2.12 4.7,-4.41 6.95,-6.85 2.25,-2.45 4.31,-4.84 6.16,-7.15 1.85,-2.32 3.51,-4.41 4.96,-6.26 1.46,-1.85 2.58,-3.38 3.38,-4.57 1.06,-1.59 2.25,-2.55 3.58,-2.88 1.32,-0.33 2.42,-0.26 3.28,0.2 0.86,0.46 1.39,1.26 1.59,2.39 0.2,1.13 -0.23,2.48 -1.29,4.07 -0.66,0.8 -1.79,2.45 -3.38,4.97 -1.59,2.52 -3.51,5.43 -5.76,8.74 -2.25,3.31 -4.77,6.79 -7.55,10.43 -2.78,3.64 -5.67,6.95 -8.65,9.93 -2.98,2.98 -5.99,5.46 -9.04,7.45 -3.05,1.98 -5.89,2.98 -8.54,2.98 -3.31,0 -6.22,-0.86 -8.74,-2.58 -1.33,-0.8 -2.69,-2.02 -4.07,-3.68 -1.39,-1.66 -2.42,-3.94 -3.08,-6.85 -0.53,-2.52 -0.6,-5.3 -0.2,-8.35 0.4,-3.05 1.13,-6.29 2.19,-9.74 -3.18,4.24 -6.42,8.18 -9.73,11.82 -3.31,3.64 -6.59,6.79 -9.84,9.44 -3.24,2.65 -6.49,4.74 -9.73,6.26 -3.25,1.52 -6.46,2.28 -9.64,2.28z"/>
   <path id="_14" class="fil3" d="M2088.01 949.57c-2.12,0 -3.97,-0.26 -5.56,-0.8 -7.98,-2.65 -13.18,-9.47 -15.5,-20.46l-1.19 -6.16c-2.91,2.39 -5.93,5.04 -9.04,7.95 -3.11,2.91 -6,5.86 -8.65,8.84 -2.65,2.98 -4.93,5.96 -6.85,8.94 -1.92,2.98 -3.15,5.86 -3.67,8.64 -0.4,1.99 -1.23,3.71 -2.48,5.17 -1.26,1.46 -2.95,2.19 -5.07,2.19 -2.12,0 -3.87,-0.73 -5.27,-2.19 -1.39,-1.46 -2.08,-3.24 -2.08,-5.36 0,-3.05 0.96,-6.22 2.88,-9.54 1.92,-3.31 4.7,-6.89 8.35,-10.73 3.64,-3.84 8.08,-8.05 13.31,-12.61 5.23,-4.57 11.09,-9.57 17.59,-15l0 -6.76c0,-3.18 -0.07,-6.26 -0.2,-9.24 -0.13,-2.98 -0.33,-5.67 -0.59,-8.05 -0.27,-1.85 -0.8,-3.41 -1.59,-4.67 -0.8,-1.26 -1.66,-2.22 -2.58,-2.88 -1.85,3.44 -4.31,7.78 -7.35,13.02 -3.05,5.23 -6.56,10.63 -10.53,16.19 -1.06,1.46 -2.25,2.45 -3.58,2.98 -1.32,0.53 -2.45,0.59 -3.38,0.2 -0.93,-0.4 -1.49,-1.16 -1.69,-2.28 -0.2,-1.13 0.3,-2.62 1.49,-4.47 2.52,-3.57 4.83,-7.09 6.95,-10.53 2.12,-3.44 4.04,-6.66 5.76,-9.64 1.72,-2.98 3.15,-5.56 4.27,-7.75 1.13,-2.19 1.95,-3.81 2.48,-4.87 0.13,-1.98 0.89,-3.67 2.28,-5.07 1.39,-1.39 3.15,-2.09 5.27,-2.09 1.19,0 2.55,0.17 4.04,0.5 1.52,0.33 3.01,1.06 4.54,2.19 1.49,1.13 2.88,2.68 4.2,4.67 1.29,1.98 2.35,4.63 3.15,7.94 0.63,2.65 1.03,5.53 1.16,8.65 0.13,3.11 0.26,6.32 0.4,9.63 3.18,-2.65 6.26,-5.33 9.24,-8.05 2.98,-2.71 5.73,-5.33 8.25,-7.85 2.78,-2.78 5,-5.2 6.65,-7.25 1.66,-2.06 2.92,-3.78 3.78,-5.17 0.86,-1.39 1.39,-2.45 1.59,-3.18 0.2,-0.73 0.3,-1.22 0.3,-1.49 0,-2.12 0.69,-3.91 2.09,-5.37 1.39,-1.46 3.15,-2.19 5.26,-2.19 2.12,0 3.91,0.73 5.37,2.19 1.46,1.46 2.19,3.24 2.19,5.37 0,3.44 -1,6.79 -2.98,10.03 -1.99,3.25 -4.9,6.69 -8.74,10.33 -3.84,3.64 -8.51,7.65 -14.01,12.02 -5.5,4.37 -11.69,9.41 -18.57,15.1 0.13,2.78 0.33,5.5 0.59,8.15 0.26,2.65 0.66,5.06 1.19,7.25 0.53,2.19 1.26,4.04 2.19,5.56 0.93,1.52 2.05,2.48 3.38,2.88 0.53,0.27 1.52,0.27 2.98,0 1.46,-0.26 3.44,-1.42 5.96,-3.48 2.52,-2.05 5.66,-5.26 9.44,-9.63 3.78,-4.37 8.31,-10.67 13.61,-18.88 1.06,-1.59 2.25,-2.65 3.57,-3.18 1.33,-0.53 2.45,-0.6 3.38,-0.2 0.93,0.4 1.52,1.16 1.79,2.29 0.26,1.13 -0.13,2.48 -1.19,4.07 -3.05,4.64 -6,9.54 -8.84,14.7 -2.85,5.17 -5.83,9.93 -8.94,14.3 -3.11,4.37 -6.36,7.98 -9.74,10.83 -3.38,2.85 -7.06,4.27 -11.03,4.27z"/>
   <path id="_15" class="fil3" d="M2120.19 949.37c-1.85,0 -3.81,-0.39 -5.86,-1.19 -2.05,-0.8 -3.61,-1.66 -4.67,-2.58 -2.65,-2.39 -4.14,-5.1 -4.47,-8.15 -0.33,-3.04 -0.13,-6.06 0.59,-9.04 0.73,-2.98 1.76,-5.76 3.08,-8.34 1.33,-2.58 2.39,-4.61 3.18,-6.06 2.91,-5.03 6.32,-10.23 10.23,-15.59 3.91,-5.37 7.58,-10.3 11.03,-14.8 2.25,-2.78 4.44,-5.66 6.56,-8.64 2.12,-2.98 3.44,-5 3.97,-6.06 0.4,-1.85 1.39,-3.34 2.98,-4.47 1.59,-1.13 3.31,-1.56 5.17,-1.29 2.12,0.26 3.81,1.19 5.06,2.78 1.26,1.59 1.76,3.44 1.49,5.56 -0.13,1.06 -0.46,2.15 -0.99,3.28 -0.53,1.13 -1.29,2.48 -2.29,4.07 -0.99,1.59 -2.31,3.48 -3.97,5.66 -1.66,2.19 -3.68,4.87 -6.06,8.05 -3.05,3.84 -6.26,8.08 -9.64,12.72 -3.38,4.63 -6.39,9.07 -9.04,13.31 -3.18,5.3 -5.1,9.11 -5.76,11.43 -0.66,2.32 -0.99,3.81 -0.99,4.47l0.99 0c2.25,-0.26 5.43,-1.69 9.54,-4.27 4.11,-2.58 9.04,-6.62 14.8,-12.12 5.76,-5.5 12.35,-12.55 19.77,-21.16 7.42,-8.61 15.7,-19.07 24.83,-31.39 0.13,-0.13 0.27,-0.2 0.4,-0.2 1.19,-1.46 2.75,-2.32 4.67,-2.58 1.92,-0.26 3.68,0.13 5.27,1.19 1.72,1.19 2.75,2.81 3.08,4.87 0.33,2.06 -0.1,3.94 -1.29,5.66 -12.85,17.49 -21.72,32.26 -26.63,44.31 -2.25,5.83 -3.41,10 -3.48,12.52 -0.07,2.52 0.03,3.97 0.3,4.37 0.53,0.27 2.02,0 4.47,-0.8 2.45,-0.79 6.06,-3.31 10.83,-7.55 2.38,-2.12 4.7,-4.41 6.95,-6.85 2.25,-2.45 4.31,-4.84 6.16,-7.15 1.85,-2.32 3.51,-4.41 4.96,-6.26 1.46,-1.85 2.58,-3.38 3.38,-4.57 1.06,-1.59 2.25,-2.55 3.58,-2.88 1.32,-0.33 2.42,-0.26 3.28,0.2 0.86,0.46 1.39,1.26 1.59,2.39 0.2,1.13 -0.23,2.48 -1.29,4.07 -0.66,0.8 -1.79,2.45 -3.38,4.97 -1.59,2.52 -3.51,5.43 -5.76,8.74 -2.25,3.31 -4.77,6.79 -7.55,10.43 -2.78,3.64 -5.67,6.95 -8.65,9.93 -2.98,2.98 -5.99,5.46 -9.04,7.45 -3.05,1.98 -5.89,2.98 -8.54,2.98 -3.31,0 -6.22,-0.86 -8.74,-2.58 -1.33,-0.8 -2.69,-2.02 -4.07,-3.68 -1.39,-1.66 -2.42,-3.94 -3.08,-6.85 -0.53,-2.52 -0.6,-5.3 -0.2,-8.35 0.4,-3.05 1.13,-6.29 2.19,-9.74 -3.18,4.24 -6.42,8.18 -9.73,11.82 -3.31,3.64 -6.59,6.79 -9.84,9.44 -3.24,2.65 -6.49,4.74 -9.73,6.26 -3.25,1.52 -6.46,2.28 -9.64,2.28z"/>
   <path id="_16" class="fil3" d="M2209 902.48c1.85,-2.91 3.71,-6.09 5.56,-9.54 1.85,-3.44 3.57,-6.95 5.17,-10.53 1.59,-3.57 2.95,-7.09 4.07,-10.53 1.13,-3.44 1.89,-6.49 2.28,-9.14 0.4,-2.65 1.39,-4.67 2.98,-6.06 1.59,-1.39 3.18,-2.02 4.77,-1.89 1.59,0.13 2.85,1.06 3.78,2.78 0.93,1.72 0.93,4.3 0,7.75 3.05,0.13 6.09,0.7 9.14,1.69 3.05,0.99 5.56,2.88 7.55,5.66 2.25,3.44 3.05,7.58 2.39,12.42 -0.66,4.83 -2.91,10.5 -6.76,16.99 -3.97,6.63 -7.05,11.89 -9.24,15.8 -2.19,3.91 -3.74,7.52 -4.67,10.83 -0.67,2.25 -1.03,3.94 -1.09,5.07 -0.07,1.13 0.03,1.82 0.3,2.09 0.4,0 1.32,-0.3 2.78,-0.89 1.46,-0.6 3.48,-2.02 6.06,-4.27 2.58,-2.25 5.73,-5.6 9.44,-10.04 3.71,-4.44 7.94,-10.5 12.71,-18.18 1.19,-1.85 2.45,-3.08 3.78,-3.67 1.33,-0.6 2.48,-0.7 3.48,-0.3 0.99,0.4 1.59,1.19 1.79,2.39 0.2,1.19 -0.3,2.71 -1.49,4.57 -2.12,3.44 -4.7,7.75 -7.75,12.92 -3.05,5.17 -6.29,10.13 -9.74,14.9 -3.44,4.77 -6.99,8.87 -10.63,12.32 -3.64,3.44 -7.12,5.17 -10.43,5.17 -3.98,0 -7.22,-1.19 -9.74,-3.58 -2.91,-2.52 -4.7,-5.4 -5.37,-8.64 -0.66,-3.24 -0.4,-7.02 0.8,-11.33 1.19,-4.3 3.18,-9.17 5.96,-14.6 2.78,-5.43 6.16,-11.52 10.13,-18.28 2.78,-4.63 4.3,-7.95 4.57,-9.93 0.26,-1.99 0.4,-3.05 0.4,-3.18 -0.27,-0.26 -1.16,-0.56 -2.69,-0.89 -1.52,-0.33 -4.4,-0.17 -8.64,0.5 -1.33,2.52 -2.72,5.1 -4.17,7.75 -1.46,2.65 -2.85,5.13 -4.17,7.45 -1.32,2.32 -2.55,4.41 -3.67,6.26 -1.13,1.85 -2.02,3.18 -2.69,3.97 -1.06,1.46 -2.25,2.42 -3.57,2.88 -1.33,0.46 -2.45,0.5 -3.38,0.1 -0.93,-0.4 -1.46,-1.16 -1.59,-2.28 -0.13,-1.13 0.4,-2.62 1.59,-4.47z"/>
   <path id="_17" class="fil3" d="M2266.42 948.98c-2.65,0 -4.87,-0.43 -6.66,-1.29 -1.79,-0.86 -3.21,-1.82 -4.27,-2.88 -2.38,-2.12 -3.78,-4.54 -4.17,-7.25 -0.4,-2.72 -0.3,-5.43 0.3,-8.15 0.6,-2.72 1.46,-5.2 2.58,-7.45 1.13,-2.25 2.02,-3.97 2.69,-5.17 2.65,-4.5 5.73,-9.14 9.24,-13.91 3.51,-4.77 6.99,-9.41 10.43,-13.91 1.59,-1.99 3.15,-4.04 4.67,-6.16 1.52,-2.12 2.94,-4.11 4.27,-5.96 1.32,-1.85 2.48,-3.54 3.48,-5.07 0.99,-1.52 1.62,-2.75 1.89,-3.68 0.67,-1.98 1.96,-3.41 3.88,-4.27 1.92,-0.86 3.81,-0.96 5.66,-0.3 1.99,0.66 3.41,1.92 4.27,3.78 0.86,1.85 0.96,3.77 0.3,5.76 -1.06,2.91 -2.95,6.29 -5.67,10.13 -2.71,3.84 -6.39,8.74 -11.03,14.7 -3.04,3.97 -5.99,7.91 -8.84,11.82 -2.85,3.91 -5.4,7.72 -7.65,11.43 -2.65,3.98 -4.27,6.96 -4.87,8.94 -0.59,1.99 -0.96,3.31 -1.09,3.98 0.53,0.13 1.42,0.06 2.68,-0.2 1.26,-0.26 2.98,-0.89 5.17,-1.89 2.19,-1 4.83,-2.48 7.95,-4.47 3.11,-1.99 6.72,-4.7 10.83,-8.15 3.98,-3.44 8.02,-7.28 12.12,-11.52 4.11,-4.24 8.15,-8.71 12.12,-13.41 3.97,-4.7 7.85,-9.5 11.62,-14.41 3.78,-4.9 7.45,-9.73 11.03,-14.5 1.19,-1.72 2.81,-2.71 4.87,-2.98 2.05,-0.26 3.87,0.27 5.46,1.59 1.72,1.19 2.71,2.81 2.98,4.87 0.26,2.05 -0.27,3.87 -1.59,5.46 -3.05,4.11 -6.39,9.14 -10.04,15.1 -3.64,5.96 -7.45,12.32 -11.42,19.07 -5.3,9.14 -10.9,18.44 -16.79,27.91 -5.89,9.47 -11.89,17.98 -17.98,25.53l-3.98 4.37c3.44,-1.72 7.59,-4.11 12.42,-7.15 4.83,-3.05 10.2,-7.09 16.09,-12.12 5.9,-5.03 12.29,-11.19 19.18,-18.48 6.89,-7.29 14.17,-16.03 21.85,-26.23 1.19,-1.59 2.45,-2.58 3.78,-2.98 1.32,-0.4 2.45,-0.36 3.38,0.1 0.93,0.46 1.42,1.33 1.49,2.59 0.07,1.26 -0.5,2.68 -1.69,4.27 -8.74,11.65 -16.79,21.82 -24.14,30.5 -7.35,8.68 -14.07,16.06 -20.17,22.15 -6.09,6.09 -11.56,10.96 -16.39,14.61 -4.83,3.64 -9.04,6.26 -12.62,7.85 -5.04,2.25 -9.64,3.78 -13.81,4.57 -4.17,0.8 -7.98,1.19 -11.42,1.19 -2.52,0 -4.77,-0.17 -6.76,-0.5 -1.99,-0.33 -3.78,-0.7 -5.37,-1.09 -4.9,-1.46 -8.87,-3.44 -11.92,-5.96 -3.05,-2.52 -5.1,-4.83 -6.16,-6.95 -1.46,-2.65 -1.82,-5 -1.09,-7.06 0.73,-2.05 1.82,-3.61 3.28,-4.67 1.72,-1.06 3.41,-1.46 5.07,-1.19 1.65,0.27 3.28,0.89 4.87,1.89 1.59,0.99 3.11,2.22 4.57,3.67 1.46,1.46 2.72,2.85 3.78,4.17 1.85,0.26 3.81,-0.07 5.86,-0.99 2.06,-0.93 4.14,-2.22 6.26,-3.87 2.12,-1.66 4.2,-3.54 6.26,-5.67 2.05,-2.12 4.01,-4.3 5.86,-6.56 3.44,-4.24 6.85,-8.84 10.23,-13.81 3.38,-4.96 6.72,-10.17 10.03,-15.59 -3.04,3.31 -6.22,6.52 -9.54,9.63 -3.31,3.11 -6.59,5.86 -9.83,8.25 -3.24,2.38 -6.39,4.3 -9.44,5.76 -3.05,1.46 -5.83,2.19 -8.35,2.19z"/>
  </g>
 </g>
</svg>
