<svg width="120" height="120" viewBox="0 0 120 120" fill="none" xmlns="http://www.w3.org/2000/svg">
<path d="M40.1226 43.6084L46.828 84.3732H93.8413L97.0101 49.7186L40.1226 43.6084Z" fill="#F5F5F5"/>
<path d="M96.0021 60.7529L93.8411 84.3756H81.4427C77.3435 73.6389 84.6302 61.9201 96.0021 60.7529Z" fill="url(#paint0_linear_1256_10068)" style="mix-blend-mode:multiply"/>
<path d="M73.5866 104.093C75.914 104.093 77.8007 102.206 77.8007 99.8791C77.8007 97.5517 75.914 95.665 73.5866 95.665C71.2593 95.665 69.3726 97.5517 69.3726 99.8791C69.3726 102.206 71.2593 104.093 73.5866 104.093Z" fill="#5E6175"/>
<path d="M73.5866 101.398C74.4254 101.398 75.1054 100.718 75.1054 99.8791C75.1054 99.0403 74.4254 98.3604 73.5866 98.3604C72.7478 98.3604 72.0679 99.0403 72.0679 99.8791C72.0679 100.718 72.7478 101.398 73.5866 101.398Z" fill="#F5F5F5"/>
<path d="M32.0954 104.093C34.4228 104.093 36.3095 102.206 36.3095 99.8791C36.3095 97.5517 34.4228 95.665 32.0954 95.665C29.768 95.665 27.8813 97.5517 27.8813 99.8791C27.8813 102.206 29.768 104.093 32.0954 104.093Z" fill="#5E6175"/>
<path d="M32.0954 101.398C32.9342 101.398 33.6142 100.718 33.6142 99.8791C33.6142 99.0403 32.9342 98.3604 32.0954 98.3604C31.2566 98.3604 30.5767 99.0403 30.5767 99.8791C30.5767 100.718 31.2566 101.398 32.0954 101.398Z" fill="#F5F5F5"/>
<path d="M32.0952 104.799C31.1218 104.799 30.1702 104.51 29.3608 103.969C28.5514 103.429 27.9205 102.66 27.548 101.76C27.1755 100.861 27.078 99.8715 27.2679 98.9167C27.4578 97.962 27.9266 97.085 28.6149 96.3967C29.3033 95.7083 30.1803 95.2396 31.135 95.0497C32.0898 94.8597 33.0794 94.9572 33.9787 95.3297C34.8781 95.7023 35.6468 96.3331 36.1876 97.1425C36.7284 97.9519 37.0171 98.9035 37.0171 99.877C37.0171 101.182 36.4985 102.434 35.5755 103.357C34.6525 104.28 33.4006 104.799 32.0952 104.799ZM32.0952 96.3613C31.3999 96.3613 30.7202 96.5675 30.142 96.9538C29.5639 97.3401 29.1133 97.8892 28.8472 98.5316C28.5811 99.174 28.5115 99.8809 28.6471 100.563C28.7828 101.245 29.1176 101.871 29.6093 102.363C30.101 102.855 30.7274 103.189 31.4094 103.325C32.0913 103.461 32.7982 103.391 33.4406 103.125C34.083 102.859 34.6321 102.408 35.0184 101.83C35.4047 101.252 35.6108 100.572 35.6108 99.877C35.609 98.9458 35.2378 98.0534 34.5787 97.3956C33.9196 96.7378 33.0264 96.3684 32.0952 96.3684V96.3613Z" fill="#5E6175"/>
<path d="M73.5938 104.799C72.6203 104.799 71.6687 104.51 70.8593 103.969C70.0499 103.429 69.4191 102.66 69.0465 101.76C68.674 100.861 68.5765 99.8715 68.7664 98.9167C68.9564 97.962 69.4251 97.085 70.1135 96.3967C70.8018 95.7083 71.6788 95.2396 72.6335 95.0497C73.5883 94.8597 74.5779 94.9572 75.4773 95.3297C76.3766 95.7023 77.1453 96.3331 77.6861 97.1425C78.227 97.9519 78.5156 98.9035 78.5156 99.877C78.5156 101.182 77.9971 102.434 77.074 103.357C76.151 104.28 74.8991 104.799 73.5938 104.799ZM73.5938 96.3613C72.8984 96.3613 72.2187 96.5675 71.6406 96.9538C71.0624 97.3401 70.6118 97.8892 70.3457 98.5316C70.0797 99.174 70.01 99.8809 70.1457 100.563C70.2813 101.245 70.6162 101.871 71.1078 102.363C71.5995 102.855 72.2259 103.189 72.9079 103.325C73.5899 103.461 74.2967 103.391 74.9391 103.125C75.5815 102.859 76.1306 102.408 76.5169 101.83C76.9032 101.252 77.1094 100.572 77.1094 99.877C77.1075 98.9458 76.7363 98.0534 76.0772 97.3956C75.4181 96.7378 74.5249 96.3684 73.5938 96.3684V96.3613Z" fill="#5E6175"/>
<path d="M34.1772 30.2744L37.1616 27.2901L38.1558 28.2843L35.1715 31.2686L34.1772 30.2744Z" fill="#5E6175"/>
<path d="M30.499 24.3398H31.9053V28.5609H30.499V24.3398Z" fill="#5E6175"/>
<path d="M37.0078 33.291H41.2289V34.6973H37.0078V33.291Z" fill="#5E6175"/>
<path d="M40.1228 43.6084H21.7876L32.7892 84.3732H46.8282L40.1228 43.6084Z" fill="#F5F5F5"/>
<path d="M94.4835 85.0787H46.2304L39.2788 42.8115L97.7741 49.0928L94.4835 85.0787ZM47.4257 83.6725H93.1991L96.246 50.3443L40.9663 44.4053L47.4257 83.6725Z" fill="#5E6175"/>
<path d="M47.6555 85.0787H32.25L20.8594 42.9053H40.7109L47.6555 85.0787ZM33.3281 83.6725H46.0008L39.525 44.3115H22.7062L33.3281 83.6725Z" fill="#5E6175"/>
<path d="M41.7516 44.3113H21.4875L12.5625 35.002H32.9766L41.7516 44.3113ZM22.0875 42.9051H38.4938L32.3695 36.4082H15.8602L22.0875 42.9051Z" fill="#5E6175"/>
<path d="M30.9561 38.1168H10.146C9.51906 38.0973 8.92436 37.8345 8.4878 37.3841C8.05125 36.9337 7.80713 36.3311 7.80713 35.7039C7.80713 35.0767 8.05125 34.4741 8.4878 34.0237C8.92436 33.5733 9.51906 33.3106 10.146 33.291H30.9561C31.5831 33.3106 32.1778 33.5733 32.6143 34.0237C33.0509 34.4741 33.295 35.0767 33.295 35.7039C33.295 36.3311 33.0509 36.9337 32.6143 37.3841C32.1778 37.8345 31.5831 38.0973 30.9561 38.1168ZM10.146 34.6879C9.88741 34.7004 9.64355 34.8119 9.46496 34.9993C9.28637 35.1867 9.18676 35.4357 9.18676 35.6945C9.18676 35.9534 9.28637 36.2024 9.46496 36.3898C9.64355 36.5772 9.88741 36.6887 10.146 36.7012H30.9561C31.2147 36.6887 31.4586 36.5772 31.6372 36.3898C31.8157 36.2024 31.9154 35.9534 31.9154 35.6945C31.9154 35.4357 31.8157 35.1867 31.6372 34.9993C31.4586 34.8119 31.2147 34.7004 30.9561 34.6879H10.146Z" fill="#5E6175"/>
<path d="M30.9563 33.9844H10.1462C9.70366 34.0008 9.28474 34.1881 8.97748 34.5069C8.67021 34.8258 8.49854 35.2513 8.49854 35.6941C8.49854 36.1369 8.67021 36.5625 8.97748 36.8814C9.28474 37.2002 9.70366 37.3875 10.1462 37.4039H30.9563C31.3988 37.3875 31.8177 37.2002 32.125 36.8814C32.4323 36.5625 32.6039 36.1369 32.6039 35.6941C32.6039 35.2513 32.4323 34.8258 32.125 34.5069C31.8177 34.1881 31.3988 34.0008 30.9563 33.9844Z" fill="#5E6175"/>
<path d="M47.5313 100.582H32.0859V84.373H33.4922V99.1762H46.125V84.373H47.5313V100.582Z" fill="#5E6175"/>
<path d="M87.8953 100.582H46.125V84.373H47.5312V99.1762H87.8953V100.582Z" fill="#5E6175"/>
<path d="M46.8278 104.093C49.1552 104.093 51.0419 102.206 51.0419 99.8791C51.0419 97.5517 49.1552 95.665 46.8278 95.665C44.5005 95.665 42.6138 97.5517 42.6138 99.8791C42.6138 102.206 44.5005 104.093 46.8278 104.093Z" fill="#5E6175"/>
<path d="M87.8977 104.093C90.225 104.093 92.1117 102.206 92.1117 99.8791C92.1117 97.5517 90.225 95.665 87.8977 95.665C85.5703 95.665 83.6836 97.5517 83.6836 99.8791C83.6836 102.206 85.5703 104.093 87.8977 104.093Z" fill="#5E6175"/>
<path d="M46.8281 104.799C45.8547 104.799 44.9031 104.51 44.0937 103.969C43.2843 103.429 42.6534 102.66 42.2809 101.76C41.9084 100.861 41.8109 99.8715 42.0008 98.9167C42.1907 97.962 42.6595 97.085 43.3478 96.3967C44.0362 95.7083 44.9132 95.2396 45.8679 95.0497C46.8227 94.8597 47.8123 94.9572 48.7116 95.3297C49.611 95.7023 50.3797 96.3331 50.9205 97.1425C51.4613 97.9519 51.75 98.9035 51.75 99.877C51.75 101.182 51.2315 102.434 50.3084 103.357C49.3854 104.28 48.1335 104.799 46.8281 104.799ZM46.8281 96.3613C46.1328 96.3613 45.4531 96.5675 44.875 96.9538C44.2968 97.3401 43.8462 97.8892 43.5801 98.5316C43.314 99.174 43.2444 99.8809 43.3801 100.563C43.5157 101.245 43.8505 101.871 44.3422 102.363C44.8339 102.855 45.4603 103.189 46.1423 103.325C46.8242 103.461 47.5311 103.391 48.1735 103.125C48.8159 102.859 49.365 102.408 49.7513 101.83C50.1376 101.252 50.3438 100.572 50.3438 99.877C50.3419 98.9458 49.9707 98.0534 49.3116 97.3956C48.6525 96.7378 47.7593 96.3684 46.8281 96.3684V96.3613Z" fill="#5E6175"/>
<path d="M87.8906 104.799C86.9172 104.799 85.9656 104.51 85.1562 103.969C84.3468 103.429 83.7159 102.66 83.3434 101.76C82.9709 100.861 82.8734 99.8715 83.0633 98.9167C83.2532 97.962 83.722 97.085 84.4103 96.3967C85.0987 95.7083 85.9757 95.2396 86.9304 95.0497C87.8852 94.8597 88.8748 94.9572 89.7741 95.3297C90.6735 95.7023 91.4422 96.3331 91.983 97.1425C92.5238 97.9519 92.8125 98.9035 92.8125 99.877C92.8125 101.182 92.294 102.434 91.3709 103.357C90.4479 104.28 89.196 104.799 87.8906 104.799ZM87.8906 96.3613C87.1953 96.3613 86.5156 96.5675 85.9374 96.9538C85.3593 97.3401 84.9087 97.8892 84.6426 98.5316C84.3765 99.174 84.3069 99.8809 84.4426 100.563C84.5782 101.245 84.913 101.871 85.4047 102.363C85.8964 102.855 86.5228 103.189 87.2048 103.325C87.8867 103.461 88.5936 103.391 89.236 103.125C89.8784 102.859 90.4275 102.408 90.8138 101.83C91.2001 101.252 91.4063 100.572 91.4063 99.877C91.4044 98.9458 91.0332 98.0534 90.3741 97.3956C89.715 96.7378 88.8218 96.3684 87.8906 96.3684V96.3613Z" fill="#5E6175"/>
<path d="M46.8142 101.398C47.6529 101.398 48.3329 100.718 48.3329 99.8791C48.3329 99.0403 47.6529 98.3604 46.8142 98.3604C45.9754 98.3604 45.2954 99.0403 45.2954 99.8791C45.2954 100.718 45.9754 101.398 46.8142 101.398Z" fill="#F5F5F5"/>
<path d="M87.8977 101.398C88.7364 101.398 89.4164 100.718 89.4164 99.8791C89.4164 99.0403 88.7364 98.3604 87.8977 98.3604C87.0589 98.3604 86.3789 99.0403 86.3789 99.8791C86.3789 100.718 87.0589 101.398 87.8977 101.398Z" fill="#F5F5F5"/>
<path d="M10.6523 103.393H87.8977V104.799H10.6523V103.393Z" fill="#5E6175"/>
<path d="M58.6405 41.2272V39.821C59.0507 39.8501 59.463 39.8241 59.8663 39.7437L60.2108 41.1054C59.6958 41.2202 59.1671 41.2612 58.6405 41.2272ZM56.2968 41.2272H54.8905V39.821H56.2968V41.2272ZM62.4983 39.5163L61.3429 38.7171C61.5538 38.4139 61.6961 38.0684 61.7601 37.7046L63.1452 37.939C63.0482 38.5059 62.8273 39.0445 62.4983 39.5163ZM61.4296 35.9351C61.2374 35.6195 60.9801 35.3487 60.6749 35.1405L61.4671 33.9686C61.9414 34.2901 62.341 34.7097 62.639 35.1991L61.4296 35.9351ZM58.8515 34.6976H57.4452V33.2913H58.8515V34.6976ZM55.1015 34.6976C54.591 34.7242 54.0792 34.7007 53.5733 34.6272L53.8241 33.2421C54.2474 33.2985 54.6751 33.3149 55.1015 33.2913V34.6976ZM51.1616 33.3335C50.774 32.9327 50.4648 32.4629 50.2499 31.9483L51.546 31.4069C51.6932 31.7598 51.9055 32.0818 52.1718 32.3561L51.1616 33.3335ZM51.396 29.5366L50.0249 29.2249C50.1483 28.6806 50.3733 28.1646 50.6882 27.7038L51.8601 28.496C51.6352 28.8078 51.4714 29.1593 51.3772 29.5319L51.396 29.5366ZM53.3296 27.3405L52.8257 26.0163C53.3448 25.8258 53.8947 25.7328 54.4476 25.7421V27.1483C54.0599 27.1402 53.6742 27.2054 53.3108 27.3405H53.3296ZM68.0601 27.153V25.7468C68.4803 25.7743 68.9023 25.7563 69.3187 25.6929L69.6046 27.071C69.0883 27.1573 68.5638 27.1848 68.0413 27.153H68.0601ZM65.7163 27.153H64.3101V25.7468H65.7163V27.153ZM61.9663 27.153H60.5601V25.7468H61.9663V27.153ZM58.2163 27.153H56.8101V25.7468H58.2163V27.153ZM71.953 25.578L70.8304 24.7296C71.0569 24.4372 71.2169 24.0988 71.2991 23.7382L72.6726 24.0382C72.5472 24.5976 72.3017 25.123 71.953 25.578ZM71.3483 21.5491C71.3483 21.5257 71.2382 21.5351 72.7546 21.5351L71.3483 21.5491Z" fill="#A9AFC4"/>
<path d="M72.0396 20.7332C72.0396 20.2986 72.1252 19.8683 72.2915 19.4668C72.4578 19.0652 72.7015 18.7004 73.0088 18.3931C73.3161 18.0858 73.681 17.8421 74.0825 17.6757C74.484 17.5094 74.9143 17.4238 75.3489 17.4238H77.8966C77.8966 17.8586 77.8109 18.2891 77.6444 18.6908C77.478 19.0925 77.234 19.4574 76.9265 19.7647C76.6189 20.0721 76.2538 20.3158 75.852 20.482C75.4502 20.6481 75.0197 20.7335 74.5849 20.7332H72.0396Z" fill="url(#paint1_linear_1256_10068)" style="mix-blend-mode:multiply"/>
<path d="M72.0396 20.7332C72.0396 20.2986 71.954 19.8683 71.7877 19.4668C71.6214 19.0652 71.3777 18.7004 71.0704 18.3931C70.763 18.0858 70.3982 17.8421 69.9967 17.6757C69.5952 17.5094 69.1649 17.4238 68.7303 17.4238H66.1826C66.1826 17.8586 66.2683 18.2891 66.4348 18.6908C66.6012 19.0925 66.8452 19.4574 67.1527 19.7647C67.4603 20.0721 67.8254 20.3158 68.2272 20.482C68.629 20.6481 69.0595 20.7335 69.4943 20.7332H72.0396Z" fill="url(#paint2_linear_1256_10068)" style="mix-blend-mode:multiply"/>
<path d="M74.5849 21.4363H71.3364V20.7332C71.3377 19.6694 71.7608 18.6495 72.513 17.8973C73.2652 17.1451 74.2851 16.7219 75.3489 16.7207H78.5997V17.4238C78.5985 18.488 78.175 19.5083 77.4223 20.2606C76.6695 21.0128 75.6491 21.4357 74.5849 21.4363ZM72.8388 20.0301H74.5849C75.1557 20.0321 75.7115 19.8471 76.1674 19.5035C76.6232 19.1598 76.954 18.6763 77.1091 18.127H75.3606C74.7901 18.1251 74.2346 18.3101 73.7792 18.6538C73.3238 18.9975 72.9934 19.4809 72.8388 20.0301Z" fill="#5E6175"/>
<path d="M72.7428 21.4363H69.4943C68.4301 21.4357 67.4097 21.0128 66.6569 20.2606C65.9042 19.5083 65.4807 18.488 65.4795 17.4238V16.7207H68.7303C69.7941 16.7219 70.8139 17.1451 71.5662 17.8973C72.3184 18.6495 72.7415 19.6694 72.7428 20.7332V21.4363ZM66.9818 18.127C67.1364 18.6744 67.4654 19.1565 67.9189 19.4999C68.3723 19.8434 68.9255 20.0295 69.4943 20.0301H71.2498C71.0957 19.4828 70.7671 19.0008 70.3141 18.6573C69.861 18.3138 69.3082 18.1276 68.7396 18.127H66.9818Z" fill="#5E6175"/>
<path d="M89.5311 22.3873C89.2229 22.0797 88.9785 21.7144 88.8117 21.3122C88.6449 20.91 88.5591 20.4789 88.5591 20.0436C88.5591 19.6082 88.6449 19.1771 88.8117 18.7749C88.9785 18.3727 89.2229 18.0074 89.5311 17.6998L91.3334 15.8975C91.6413 16.2052 91.8855 16.5706 92.0521 16.9727C92.2187 17.3749 92.3044 17.8059 92.3044 18.2412C92.3044 18.6765 92.2187 19.1075 92.0521 19.5097C91.8855 19.9118 91.6413 20.2772 91.3334 20.585L89.5311 22.3873Z" fill="url(#paint3_linear_1256_10068)" style="mix-blend-mode:multiply"/>
<path d="M89.531 22.388C89.2235 22.0796 88.8582 21.8349 88.456 21.6679C88.0539 21.501 87.6227 21.415 87.1872 21.415C86.7517 21.415 86.3206 21.501 85.9184 21.6679C85.5162 21.8349 85.1509 22.0796 84.8435 22.388L83.0435 24.188C83.3507 24.4967 83.716 24.7416 84.1182 24.9088C84.5204 25.0759 84.9517 25.162 85.3872 25.162C85.8228 25.162 86.254 25.0759 86.6562 24.9088C87.0584 24.7416 87.4237 24.4967 87.731 24.188L89.531 22.388Z" fill="url(#paint4_linear_1256_10068)" style="mix-blend-mode:multiply"/>
<path d="M89.531 23.3814L89.0342 22.8846C88.6613 22.5119 88.3654 22.0695 88.1636 21.5825C87.9618 21.0955 87.8579 20.5735 87.8579 20.0463C87.8579 19.5191 87.9618 18.9971 88.1636 18.5101C88.3654 18.0231 88.6613 17.5806 89.0342 17.208L91.3334 14.9111L91.8303 15.408C92.2032 15.7806 92.499 16.2231 92.7008 16.7101C92.9026 17.1971 93.0065 17.7191 93.0065 18.2463C93.0065 18.7735 92.9026 19.2955 92.7008 19.7825C92.499 20.2695 92.2032 20.7119 91.8303 21.0846L89.531 23.3814ZM91.2654 16.9666L90.0303 18.2041C89.628 18.607 89.3687 19.1306 89.2921 19.6948C89.2155 20.259 89.3258 20.8327 89.606 21.3283L90.8412 20.0932C91.2441 19.6902 91.504 19.1665 91.5815 18.602C91.6589 18.0375 91.5496 17.4632 91.2701 16.9666H91.2654Z" fill="#5E6175"/>
<path d="M82.5584 24.6848L82.0615 24.188L84.3584 21.8911C84.731 21.5182 85.1735 21.2224 85.6605 21.0206C86.1475 20.8187 86.6695 20.7148 87.1967 20.7148C87.7239 20.7148 88.2459 20.8187 88.7329 21.0206C89.2199 21.2224 89.6623 21.5182 90.035 21.8911L90.5318 22.388L88.2326 24.6848C87.8605 25.0582 87.4183 25.3545 86.9315 25.5566C86.4446 25.7588 85.9227 25.8628 85.3955 25.8628C84.8684 25.8628 84.3464 25.7588 83.8595 25.5566C83.3727 25.3545 82.9305 25.0582 82.5584 24.6848ZM84.117 24.1223C84.613 24.4015 85.1868 24.5105 85.7506 24.4326C86.3144 24.3548 86.8371 24.0943 87.2389 23.6911L88.474 22.4559C87.9781 22.1772 87.4046 22.0683 86.841 22.1457C86.2774 22.2232 85.7546 22.4827 85.3522 22.8848L84.117 24.1223Z" fill="#5E6175"/>
<path d="M97.7789 44.3114L97.7485 42.9051C98.128 42.8985 98.5028 42.8189 98.8524 42.6708L99.4078 43.9622C98.8923 44.1821 98.3393 44.3007 97.7789 44.3114ZM75.8063 43.6083H74.4V42.202H75.8063V43.6083ZM95.1563 43.5075C94.6995 43.1837 94.3089 42.7756 94.0055 42.3051L95.1774 41.5434C95.3845 41.8629 95.6501 42.1405 95.9602 42.3614L95.1563 43.5075ZM101.463 42.1387L100.249 41.4356C100.44 41.1081 100.566 40.7468 100.62 40.3715L102.012 40.5708C101.932 41.124 101.746 41.6566 101.463 42.1387ZM75.8063 39.8583H74.4C74.3699 39.3309 74.4164 38.8019 74.5383 38.2879L75.9 38.6372C75.8112 39.0377 75.7796 39.4488 75.8063 39.8583ZM94.7156 39.6919H93.3094C93.3335 39.2969 93.2907 38.9007 93.1828 38.52L94.5281 38.1098C94.6778 38.6231 94.7412 39.1578 94.7156 39.6919ZM102.056 38.1239H100.65V36.7176H102.056V38.1239ZM76.9055 37.0692L76.0195 35.977C76.4546 35.6241 76.9535 35.3584 77.4891 35.1942L77.9016 36.5372C77.5386 36.6491 77.2004 36.8297 76.9055 37.0692ZM92.1047 36.9872C91.8005 36.7607 91.4549 36.5959 91.0875 36.502L91.4391 35.1403C91.9822 35.2781 92.4927 35.5219 92.9414 35.8575L92.1047 36.9872ZM88.9289 36.4083H87.5227V35.002H88.9289V36.4083ZM85.1789 36.4083H83.7727V35.002H85.1789V36.4083ZM81.4289 36.4083H80.0227V35.002H81.4289V36.4083ZM102.054 34.3739H100.648V32.9676H102.054V34.3739ZM102.054 30.6239H100.648V29.2176H102.054V30.6239ZM100.507 27.1083C100.392 26.7467 100.208 26.4108 99.9656 26.1192L101.046 25.2192C101.405 25.6505 101.677 26.1471 101.848 26.6817L100.507 27.1083ZM98.3977 25.1301C97.9924 25.0467 97.5777 25.0184 97.1649 25.0458V23.6395C97.69 23.6091 98.2168 23.6509 98.7305 23.7637L98.3977 25.1301ZM94.8211 25.0458H93.4149V23.6395H94.8211V25.0458Z" fill="#A9AFC4"/>
<path d="M25.0289 83.0014C24.6776 83.0014 24.3317 82.915 24.0217 82.7497C23.7117 82.5844 23.4472 82.3454 23.2515 82.0536C23.0558 81.7619 22.9349 81.4265 22.8995 81.077C22.8642 80.7274 22.9154 80.3746 23.0487 80.0496C23.182 79.7246 23.3933 79.4374 23.6638 79.2133C23.9344 78.9893 24.256 78.8353 24.6002 78.765C24.9444 78.6947 25.3006 78.7102 25.6373 78.8101C25.9741 78.9101 26.2811 79.0914 26.5312 79.3381C26.8345 79.6357 27.0423 80.017 27.1279 80.4332C27.2135 80.8494 27.1731 81.2818 27.0119 81.6749C26.8507 82.0681 26.5759 82.4043 26.2227 82.6406C25.8694 82.8768 25.4538 83.0024 25.0289 83.0014ZM25.0289 80.1279C24.8836 80.1279 24.7416 80.1711 24.6208 80.2519C24.5001 80.3327 24.4061 80.4476 24.3507 80.5819C24.2953 80.7162 24.281 80.8639 24.3097 81.0064C24.3384 81.1488 24.4087 81.2795 24.5118 81.3819C24.6149 81.4843 24.746 81.5538 24.8886 81.5816C25.0312 81.6094 25.1789 81.5942 25.3129 81.5379C25.4468 81.4817 25.5611 81.3869 25.6411 81.2657C25.7211 81.1444 25.7634 81.0021 25.7625 80.8568C25.7612 80.6631 25.6834 80.4777 25.5459 80.3411C25.4085 80.2046 25.2226 80.1279 25.0289 80.1279Z" fill="#5E6175"/>
<path d="M17.5897 94.116C17.0131 94.116 16.4494 93.9453 15.9697 93.6254C15.49 93.3056 15.1157 92.8509 14.894 92.3186C14.6722 91.7864 14.6131 91.2004 14.7239 90.6345C14.8347 90.0687 15.1105 89.5483 15.5165 89.139C15.9226 88.7297 16.4408 88.4497 17.0057 88.3344C17.5706 88.2191 18.1571 88.2736 18.6911 88.491C19.2251 88.7085 19.6828 89.0791 20.0065 89.5563C20.3301 90.0334 20.5053 90.5957 20.51 91.1723C20.5127 91.5577 20.4393 91.9398 20.2938 92.2967C20.1483 92.6535 19.9337 92.9781 19.6623 93.2517C19.3908 93.5253 19.068 93.7425 18.7123 93.8909C18.3566 94.0392 17.975 94.1157 17.5897 94.116ZM17.5897 89.684C17.2897 89.684 16.9965 89.7731 16.7473 89.94C16.498 90.1069 16.304 90.344 16.1898 90.6214C16.0755 90.8987 16.0462 91.2038 16.1056 91.4978C16.165 91.7918 16.3103 92.0615 16.5233 92.2728C16.7362 92.4841 17.0071 92.6273 17.3015 92.6844C17.596 92.7415 17.9008 92.7099 18.1772 92.5935C18.4537 92.4771 18.6893 92.2812 18.8543 92.0307C19.0192 91.7801 19.106 91.4863 19.1037 91.1863C19.1 90.787 18.9389 90.4053 18.6555 90.124C18.372 89.8427 17.989 89.6846 17.5897 89.684Z" fill="#5E6175"/>
<path d="M97.8093 91.9154C105.405 91.9154 111.562 85.7579 111.562 78.1623C111.562 70.5667 105.405 64.4092 97.8093 64.4092C90.2136 64.4092 84.0562 70.5667 84.0562 78.1623C84.0562 85.7579 90.2136 91.9154 97.8093 91.9154Z" fill="#F5F5F5"/>
<path d="M97.8091 92.6203C94.9493 92.6208 92.1537 91.7732 89.7757 90.1847C87.3977 88.5963 85.5441 86.3383 84.4494 83.6964C83.3547 81.0545 83.0681 78.1473 83.6257 75.3424C84.1833 72.5376 85.5602 69.9611 87.5821 67.9388C89.6041 65.9165 92.1804 64.5392 94.9852 63.9811C97.7899 63.423 100.697 63.7092 103.339 64.8035C105.981 65.8978 108.24 67.751 109.828 70.1287C111.417 72.5065 112.265 75.302 112.265 78.1617C112.262 81.9948 110.737 85.6699 108.027 88.3806C105.317 91.0912 101.642 92.616 97.8091 92.6203ZM97.8091 65.1117C95.2274 65.1113 92.7035 65.8764 90.5567 67.3105C88.4099 68.7445 86.7366 70.783 85.7484 73.1681C84.7602 75.5532 84.5015 78.1778 85.0051 80.7099C85.5086 83.242 86.7518 85.5679 88.5773 87.3935C90.4029 89.219 92.7288 90.4622 95.2609 90.9657C97.7931 91.4693 100.418 91.2106 102.803 90.2224C105.188 89.2342 107.226 87.5609 108.66 85.4141C110.094 83.2673 110.86 80.7434 110.859 78.1617C110.855 74.702 109.478 71.3852 107.032 68.9388C104.586 66.4924 101.269 65.1161 97.8091 65.1117Z" fill="#5E6175"/>
<path d="M90.4185 81.7129L101.355 70.7765L105.058 74.48L94.1219 85.4164L90.4185 81.7129Z" fill="#E8BF7A"/>
<path d="M90.4204 74.4795L94.1239 70.776L105.06 81.7124L101.357 85.4159L90.4204 74.4795Z" fill="#E8BF7A"/>
<defs>
<linearGradient id="paint0_linear_1256_10068" x1="80.2896" y1="72.5631" x2="96.0021" y2="72.5631" gradientUnits="userSpaceOnUse">
<stop stop-color="#CACFDD"/>
<stop offset="1" stop-color="#EEF0F1"/>
</linearGradient>
<linearGradient id="paint1_linear_1256_10068" x1="72.0396" y1="19.0785" x2="77.8966" y2="19.0785" gradientUnits="userSpaceOnUse">
<stop stop-color="#CACFDD"/>
<stop offset="1" stop-color="#EEF0F1"/>
</linearGradient>
<linearGradient id="paint2_linear_1256_10068" x1="66.1826" y1="19.0785" x2="72.0396" y2="19.0785" gradientUnits="userSpaceOnUse">
<stop stop-color="#CACFDD"/>
<stop offset="1" stop-color="#EEF0F1"/>
</linearGradient>
<linearGradient id="paint3_linear_1256_10068" x1="88.6614" y1="21.0008" x2="92.8199" y2="16.8423" gradientUnits="userSpaceOnUse">
<stop stop-color="#CACFDD"/>
<stop offset="1" stop-color="#EEF0F1"/>
</linearGradient>
<linearGradient id="paint4_linear_1256_10068" x1="84.5028" y1="25.16" x2="88.6613" y2="21.0015" gradientUnits="userSpaceOnUse">
<stop stop-color="#CACFDD"/>
<stop offset="1" stop-color="#EEF0F1"/>
</linearGradient>
</defs>
</svg>
