<svg width="145" height="9" viewBox="0 0 145 9" fill="none" xmlns="http://www.w3.org/2000/svg">
<path d="M-4.91142e-05 4.33008L4.33008 8.66021L8.66021 4.33008L4.33008 -4.91142e-05L-4.91142e-05 4.33008ZM8.21897 5.08008C8.63318 5.08008 8.96897 4.74429 8.96897 4.33008C8.96897 3.91586 8.63318 3.58008 8.21897 3.58008V4.33008V5.08008ZM15.9967 3.58008C15.5825 3.58008 15.2467 3.91586 15.2467 4.33008C15.2467 4.74429 15.5825 5.08008 15.9967 5.08008V4.33008V3.58008ZM23.7745 5.08008C24.1887 5.08008 24.5245 4.74429 24.5245 4.33008C24.5245 3.91586 24.1887 3.58008 23.7745 3.58008V4.33008V5.08008ZM31.5523 3.58008C31.1381 3.58008 30.8023 3.91586 30.8023 4.33008C30.8023 4.74429 31.1381 5.08008 31.5523 5.08008V4.33008V3.58008ZM39.3301 5.08008C39.7443 5.08008 40.0801 4.74429 40.0801 4.33008C40.0801 3.91586 39.7443 3.58008 39.3301 3.58008V4.33008V5.08008ZM47.1079 3.58008C46.6936 3.58008 46.3579 3.91586 46.3579 4.33008C46.3579 4.74429 46.6936 5.08008 47.1079 5.08008V4.33008V3.58008ZM54.8856 5.08008C55.2999 5.08008 55.6356 4.74429 55.6356 4.33008C55.6356 3.91586 55.2999 3.58008 54.8856 3.58008V4.33008V5.08008ZM62.6634 3.58008C62.2492 3.58008 61.9134 3.91586 61.9134 4.33008C61.9134 4.74429 62.2492 5.08008 62.6634 5.08008V4.33008V3.58008ZM70.4412 5.08008C70.8554 5.08008 71.1912 4.74429 71.1912 4.33008C71.1912 3.91586 70.8554 3.58008 70.4412 3.58008V4.33008V5.08008ZM78.219 3.58008C77.8048 3.58008 77.469 3.91586 77.469 4.33008C77.469 4.74429 77.8048 5.08008 78.219 5.08008V4.33008V3.58008ZM85.9967 5.08008C86.411 5.08008 86.7467 4.74429 86.7467 4.33008C86.7467 3.91586 86.411 3.58008 85.9967 3.58008V4.33008V5.08008ZM93.7745 3.58008C93.3603 3.58008 93.0245 3.91586 93.0245 4.33008C93.0245 4.74429 93.3603 5.08008 93.7745 5.08008V4.33008V3.58008ZM101.552 5.08008C101.967 5.08008 102.302 4.74429 102.302 4.33008C102.302 3.91586 101.967 3.58008 101.552 3.58008V4.33008V5.08008ZM109.33 3.58008C108.916 3.58008 108.58 3.91586 108.58 4.33008C108.58 4.74429 108.916 5.08008 109.33 5.08008V4.33008V3.58008ZM117.108 5.08008C117.522 5.08008 117.858 4.74429 117.858 4.33008C117.858 3.91586 117.522 3.58008 117.108 3.58008V4.33008V5.08008ZM124.886 3.58008C124.471 3.58008 124.136 3.91586 124.136 4.33008C124.136 4.74429 124.471 5.08008 124.886 5.08008V4.33008V3.58008ZM132.663 5.08008C133.078 5.08008 133.413 4.74429 133.413 4.33008C133.413 3.91586 133.078 3.58008 132.663 3.58008V4.33008V5.08008ZM140.441 3.58008C140.027 3.58008 139.691 3.91586 139.691 4.33008C139.691 4.74429 140.027 5.08008 140.441 5.08008V4.33008V3.58008ZM4.33008 4.33008V5.08008H8.21897V4.33008V3.58008H4.33008V4.33008ZM15.9967 4.33008V5.08008H23.7745V4.33008V3.58008H15.9967V4.33008ZM31.5523 4.33008V5.08008H39.3301V4.33008V3.58008H31.5523V4.33008ZM47.1079 4.33008V5.08008H54.8856V4.33008V3.58008H47.1079V4.33008ZM62.6634 4.33008V5.08008H70.4412V4.33008V3.58008H62.6634V4.33008ZM78.219 4.33008V5.08008H85.9967V4.33008V3.58008H78.219V4.33008ZM93.7745 4.33008V5.08008H101.552V4.33008V3.58008H93.7745V4.33008ZM109.33 4.33008V5.08008H117.108V4.33008V3.58008H109.33V4.33008ZM124.886 4.33008V5.08008H132.663V4.33008V3.58008H124.886V4.33008ZM140.441 4.33008V5.08008H144.33V4.33008V3.58008H140.441V4.33008Z" fill="url(#paint0_linear_138_390)"/>
<defs>
<linearGradient id="paint0_linear_138_390" x1="4.33008" y1="4.83008" x2="144.33" y2="4.83008" gradientUnits="userSpaceOnUse">
<stop stop-color="#A28860"/>
<stop offset="1" stop-color="#CDAB78" stop-opacity="0"/>
</linearGradient>
</defs>
</svg>
